M48
;DRILL file {KiCad 4.0.2+dfsg1-2~bpo8+1-stable} date vr 27 mei 2016 03:00:19 CEST
;FORMAT={-:-/ absolute / inch / decimal}
FMAT,2
INCH,TZ
T1C0.016
T2C0.024
T3C0.028
T4C0.031
T5C0.032
T6C0.039
T7C0.039
T8C0.040
T9C0.047
%
G90
G05
M72
T1
X6.08Y-4.5919
X6.08Y-4.5593
X6.12Y-4.905
X6.1985Y-4.8313
X6.2299Y-5.2405
X6.235Y-4.865
X6.2429Y-5.196
X6.4446Y-4.8768
X6.5162Y-4.742
X7.58Y-5.41
T2
X7.6Y-4.59
X7.6Y-4.67
X7.6Y-4.75
T3
X6.5413Y-4.21
X6.6213Y-4.21
X6.7013Y-4.21
X8.395Y-4.5512
X8.395Y-4.63
T4
X6.85Y-4.1
X6.85Y-4.2
X6.85Y-4.3
X6.85Y-4.4
X6.85Y-4.5
X6.85Y-4.6
X6.85Y-4.7
X6.85Y-4.8
X6.85Y-4.9
X6.85Y-5.
X6.85Y-5.1
X6.85Y-5.2
X6.85Y-5.3
X6.85Y-5.4
X7.15Y-4.1
X7.15Y-4.2
X7.15Y-4.3
X7.15Y-4.4
X7.15Y-4.5
X7.15Y-4.6
X7.15Y-4.7
X7.15Y-4.8
X7.15Y-4.9
X7.15Y-5.
X7.15Y-5.1
X7.15Y-5.2
X7.15Y-5.3
X7.15Y-5.4
X7.4Y-4.7984
X7.5Y-4.3
X7.76Y-4.46
X7.76Y-4.54
X7.86Y-4.7484
X8.08Y-4.6587
X8.08Y-4.7387
T5
X7.4Y-4.7
X7.5Y-4.2016
X7.86Y-4.65
T6
X5.68Y-4.4307
X5.68Y-4.53
X5.68Y-4.63
X5.68Y-4.73
X5.68Y-4.83
X5.68Y-4.93
X5.68Y-5.03
X5.68Y-5.13
X5.68Y-5.2307
X5.68Y-5.3307
X5.68Y-5.4307
X5.78Y-4.43
X5.78Y-4.53
X5.78Y-4.63
X5.78Y-4.73
X5.78Y-4.83
X5.78Y-4.93
X5.78Y-5.03
X5.78Y-5.1307
X5.78Y-5.2307
X5.78Y-5.3307
X5.78Y-5.4307
X5.88Y-4.43
X5.88Y-4.53
X5.88Y-4.63
X5.88Y-4.7307
X5.88Y-4.8307
X5.88Y-4.9307
X5.88Y-5.0307
X5.88Y-5.1307
X5.88Y-5.2307
X5.88Y-5.3307
X5.88Y-5.4307
X8.47Y-5.45
T7
X6.3Y-4.385
X6.3Y-4.515
X6.3Y-4.645
X6.3Y-4.775
X6.3Y-4.905
X6.3Y-5.035
X6.3Y-5.165
X6.3Y-5.295
X6.3Y-5.425
X6.7Y-4.385
X6.7Y-4.515
X6.7Y-4.645
X6.7Y-4.775
X6.7Y-4.905
X6.7Y-5.035
X6.7Y-5.165
X6.7Y-5.295
X6.7Y-5.425
X7.25Y-5.44
X7.28Y-4.61
X7.28Y-5.01
X7.35Y-5.44
X7.47Y-5.04
X7.47Y-5.44
X7.7Y-4.2
X7.7Y-4.32
X8.1Y-4.2
X8.1Y-4.32
T8
X5.5Y-4.6
X5.5Y-4.7
X5.5Y-4.8
X5.5Y-4.9
X5.7Y-4.075
X5.8Y-4.075
X5.975Y-4.075
X5.98Y-4.43
X5.98Y-4.53
X5.98Y-4.63
X5.98Y-4.73
X5.98Y-4.83
X5.98Y-4.93
X5.98Y-5.03
X5.98Y-5.13
X5.98Y-5.23
X5.98Y-5.33
X5.98Y-5.43
X6.075Y-4.075
X6.25Y-4.075
X6.35Y-4.075
X7.3Y-4.05
X7.4Y-4.05
X7.5Y-4.05
X7.6Y-4.05
X7.7Y-4.05
X7.8Y-4.05
X8.05Y-4.05
X8.15Y-4.05
X8.25Y-4.05
X8.25Y-4.2882
X8.25Y-4.8
T9
X7.3515Y-4.47
X7.44Y-4.47
X7.5285Y-4.47
X7.993Y-4.47
X8.0815Y-4.47
X8.17Y-4.47
T7
X8.2867Y-4.6379G85X8.2867Y-4.5395
G05
X8.3557Y-4.38G85X8.4344Y-4.38
G05
X8.523Y-4.628G85X8.523Y-4.5493
G05
T0
M30
