G04 #@! TF.FileFunction,Copper,L1,Top,Signal*
%FSLAX46Y46*%
G04 Gerber Fmt 4.6, Leading zero omitted, Abs format (unit mm)*
G04 Created by KiCad (PCBNEW 4.0.2+dfsg1-2~bpo8+1-stable) date vr 27 mei 2016 03:00:12 CEST*
%MOMM*%
G01*
G04 APERTURE LIST*
%ADD10C,0.100000*%
%ADD11R,1.699260X1.198880*%
%ADD12O,1.699260X1.198880*%
%ADD13O,4.000500X1.998980*%
%ADD14O,1.998980X4.000500*%
%ADD15O,1.998980X4.500880*%
%ADD16R,1.198880X1.699260*%
%ADD17O,1.198880X1.699260*%
%ADD18R,2.032000X2.032000*%
%ADD19O,2.032000X2.032000*%
%ADD20R,2.500000X1.200000*%
%ADD21R,2.000000X2.000000*%
%ADD22C,1.800000*%
%ADD23R,1.300000X1.300000*%
%ADD24C,1.500000*%
%ADD25O,1.500000X1.000000*%
%ADD26C,1.998980*%
%ADD27C,2.000000*%
%ADD28O,2.032000X1.727200*%
%ADD29R,2.032000X1.727200*%
%ADD30R,1.727200X2.032000*%
%ADD31O,1.727200X2.032000*%
%ADD32O,1.747520X2.499360*%
%ADD33O,1.600000X1.600000*%
%ADD34C,0.600000*%
%ADD35C,1.270000*%
%ADD36C,0.250000*%
%ADD37C,0.600000*%
%ADD38C,0.400000*%
%ADD39C,0.300000*%
G04 APERTURE END LIST*
D10*
X219456000Y-140716000D02*
X136144000Y-140716000D01*
X219456000Y-100584000D02*
X219456000Y-140716000D01*
X136144000Y-100584000D02*
X219456000Y-100584000D01*
X136144000Y-140716000D02*
X136144000Y-100584000D01*
D11*
X213233000Y-117602000D03*
D12*
X213233000Y-115600480D03*
D13*
X213233000Y-111252000D03*
D14*
X216484200Y-116552980D03*
D15*
X210482180Y-116552980D03*
D16*
X166149020Y-106934000D03*
D17*
X168181020Y-106934000D03*
X170213020Y-106934000D03*
D18*
X209550000Y-108920000D03*
D19*
X209550000Y-121920000D03*
D20*
X194820000Y-125000000D03*
X194820000Y-127000000D03*
X194820000Y-129000000D03*
X194820000Y-131000000D03*
X194820000Y-133000000D03*
X194820000Y-135000000D03*
X194820000Y-137000000D03*
X194820000Y-139000000D03*
X210820000Y-139000000D03*
X210820000Y-137000000D03*
X210820000Y-135000000D03*
X210820000Y-133000000D03*
X210820000Y-131000000D03*
X210820000Y-129000000D03*
X210820000Y-127000000D03*
X210820000Y-125000000D03*
D21*
X186690000Y-138176000D03*
D22*
X184150000Y-138176000D03*
D23*
X205232000Y-120364000D03*
D24*
X205232000Y-118332000D03*
D23*
X199644000Y-120610000D03*
D24*
X199644000Y-118110000D03*
D25*
X193040000Y-118618000D03*
X193040000Y-120650000D03*
X193040000Y-116586000D03*
D26*
X170180000Y-124587000D03*
X160020000Y-124587000D03*
D27*
X149352000Y-115062000D03*
X144272000Y-112539629D03*
X146812000Y-112522000D03*
X149352000Y-112522000D03*
D28*
X151892000Y-115062000D03*
X151892000Y-117602000D03*
X151892000Y-120142000D03*
X151892000Y-122682000D03*
X151892000Y-125222000D03*
X151892000Y-127762000D03*
X151892000Y-130302000D03*
X151892000Y-132842000D03*
X151892000Y-137922000D03*
X151892000Y-135382000D03*
X151892000Y-112522000D03*
D27*
X146812000Y-115062000D03*
X144272000Y-115062000D03*
X146812000Y-117602000D03*
X144272000Y-117602000D03*
X149352000Y-120159629D03*
X149352000Y-122699629D03*
X149352000Y-125239629D03*
X149352000Y-117602000D03*
X146812000Y-122682000D03*
X146812000Y-120142000D03*
X144272000Y-125222000D03*
X146812000Y-125222000D03*
X144272000Y-120142000D03*
X144272000Y-122682000D03*
X146812000Y-132859629D03*
X146812000Y-137939629D03*
X144272000Y-135399629D03*
X144272000Y-132859629D03*
X144272000Y-137939629D03*
X146812000Y-135399629D03*
X144272000Y-127762000D03*
X144272000Y-130302000D03*
X146812000Y-127762000D03*
X149352000Y-130319629D03*
X146812000Y-130319629D03*
X149352000Y-127779629D03*
X149352000Y-132859629D03*
X149352000Y-137939629D03*
X149352000Y-135399629D03*
D26*
X160020000Y-121285000D03*
X170180000Y-121285000D03*
X160020000Y-117983000D03*
X170180000Y-117983000D03*
X160020000Y-131191000D03*
X170180000Y-131191000D03*
X160020000Y-127889000D03*
X170180000Y-127889000D03*
X160020000Y-137795000D03*
X170180000Y-137795000D03*
X160020000Y-134493000D03*
X170180000Y-134493000D03*
X205740000Y-109728000D03*
X195580000Y-109728000D03*
X160020000Y-111379000D03*
X170180000Y-111379000D03*
X160020000Y-114681000D03*
X170180000Y-114681000D03*
D18*
X158750000Y-103505000D03*
D19*
X161290000Y-103505000D03*
D18*
X151765000Y-103505000D03*
D19*
X154305000Y-103505000D03*
D18*
X144780000Y-103505000D03*
D19*
X147320000Y-103505000D03*
D29*
X139700000Y-124460000D03*
D28*
X139700000Y-121920000D03*
X139700000Y-119380000D03*
X139700000Y-116840000D03*
D26*
X189738000Y-128016000D03*
X189738000Y-138176000D03*
X184912000Y-117094000D03*
X184912000Y-127254000D03*
X205740000Y-106680000D03*
X195580000Y-106680000D03*
D30*
X185420000Y-102870000D03*
D31*
X187960000Y-102870000D03*
X190500000Y-102870000D03*
X193040000Y-102870000D03*
X195580000Y-102870000D03*
X198120000Y-102870000D03*
D30*
X204470000Y-102870000D03*
D31*
X207010000Y-102870000D03*
X209550000Y-102870000D03*
D27*
X215138000Y-138430000D03*
D32*
X186728100Y-113538000D03*
X188976000Y-113538000D03*
X191223900Y-113538000D03*
X203022200Y-113538000D03*
X205270100Y-113538000D03*
X207518000Y-113538000D03*
D33*
X173990000Y-104140000D03*
X173990000Y-106680000D03*
X173990000Y-109220000D03*
X173990000Y-111760000D03*
X173990000Y-114300000D03*
X173990000Y-116840000D03*
X173990000Y-119380000D03*
X173990000Y-121920000D03*
X173990000Y-124460000D03*
X173990000Y-127000000D03*
X173990000Y-129540000D03*
X173990000Y-132080000D03*
X173990000Y-134620000D03*
X173990000Y-137160000D03*
X181610000Y-137160000D03*
X181610000Y-134620000D03*
X181610000Y-132080000D03*
X181610000Y-129540000D03*
X181610000Y-127000000D03*
X181610000Y-124460000D03*
X181610000Y-121920000D03*
X181610000Y-119380000D03*
X181610000Y-116840000D03*
X181610000Y-114300000D03*
X181610000Y-111760000D03*
X181610000Y-109220000D03*
X181610000Y-106680000D03*
X181610000Y-104140000D03*
D23*
X187960000Y-121880000D03*
D24*
X187960000Y-119380000D03*
D23*
X190500000Y-109220000D03*
D24*
X190500000Y-106720000D03*
D23*
X197104000Y-115316000D03*
D24*
X197104000Y-113284000D03*
D34*
X192532000Y-137414000D03*
X154431600Y-115806426D03*
X163691693Y-123871861D03*
X155448000Y-124587000D03*
X158369000Y-123571000D03*
X157442518Y-122714837D03*
X154431588Y-116633025D03*
X158568845Y-131978358D03*
X158239668Y-133109905D03*
X165511531Y-120447422D03*
D35*
X215138000Y-138430000D02*
X214568000Y-139000000D01*
X214568000Y-139000000D02*
X210820000Y-139000000D01*
D36*
X211470000Y-139000000D02*
X210820000Y-139000000D01*
X210820000Y-139000000D02*
X211255002Y-139000000D01*
D37*
X137160000Y-124460000D02*
X137038122Y-124581878D01*
X137038122Y-124581878D02*
X137038122Y-135768122D01*
X137038122Y-135768122D02*
X140970000Y-139700000D01*
X140970000Y-139700000D02*
X158115000Y-139700000D01*
X158115000Y-139700000D02*
X160020000Y-137795000D01*
X158750000Y-101600000D02*
X141605000Y-101600000D01*
X141605000Y-101600000D02*
X137045157Y-106159843D01*
X137045157Y-106159843D02*
X137045157Y-124345157D01*
X137045157Y-124345157D02*
X137160000Y-124460000D01*
X210820000Y-131000000D02*
X212470000Y-131000000D01*
X214462294Y-129007706D02*
X214462294Y-123849437D01*
X212470000Y-131000000D02*
X214462294Y-129007706D01*
X214462294Y-123849437D02*
X210593620Y-119980763D01*
X210593620Y-119980763D02*
X205615237Y-119980763D01*
X205615237Y-119980763D02*
X205232000Y-120364000D01*
X170180000Y-124587000D02*
X171981311Y-122785689D01*
X171981311Y-122785689D02*
X171981311Y-121388689D01*
X160020000Y-111379000D02*
X160020000Y-109220000D01*
X160020000Y-109220000D02*
X158750000Y-107950000D01*
X158750000Y-107950000D02*
X158750000Y-103505000D01*
X166149020Y-105159810D02*
X166149020Y-106934000D01*
X166149020Y-105159810D02*
X162589210Y-101600000D01*
X162589210Y-101600000D02*
X158750000Y-101600000D01*
X205740000Y-109728000D02*
X203962464Y-109728000D01*
X203962464Y-109728000D02*
X200740794Y-112949670D01*
X200740794Y-112949670D02*
X200740794Y-114326415D01*
X200740794Y-114326415D02*
X198026208Y-117041001D01*
X198026208Y-117041001D02*
X198026208Y-120516208D01*
X198026208Y-120516208D02*
X198120000Y-120610000D01*
X199644000Y-120610000D02*
X198120000Y-120610000D01*
X198120000Y-120610000D02*
X193080000Y-120610000D01*
X193040000Y-120650000D02*
X189190000Y-120650000D01*
X189190000Y-120650000D02*
X187960000Y-121880000D01*
X181610000Y-121920000D02*
X176530000Y-121920000D01*
X176530000Y-121920000D02*
X173990000Y-119380000D01*
X193080000Y-120610000D02*
X193040000Y-120650000D01*
X144272000Y-117602000D02*
X142915149Y-117602000D01*
X142028689Y-122283711D02*
X139852400Y-124460000D01*
X142028689Y-118488460D02*
X142028689Y-122283711D01*
X142915149Y-117602000D02*
X142028689Y-118488460D01*
D38*
X139852400Y-124460000D02*
X139700000Y-124460000D01*
D37*
X149352000Y-117602000D02*
X151892000Y-117602000D01*
X146812000Y-117602000D02*
X149352000Y-117602000D01*
X144272000Y-117602000D02*
X146812000Y-117602000D01*
X171981311Y-121388689D02*
X173990000Y-119380000D01*
X205232000Y-120364000D02*
X199890000Y-120364000D01*
D38*
X199890000Y-120364000D02*
X199644000Y-120610000D01*
X151892000Y-117602000D02*
X152044400Y-117602000D01*
X211470000Y-131000000D02*
X210820000Y-131000000D01*
D37*
X158750000Y-103505000D02*
X158750000Y-101600000D01*
X181610000Y-124460000D02*
X181610000Y-121920000D01*
X137160000Y-124460000D02*
X139700000Y-124460000D01*
D38*
X139547600Y-124460000D02*
X139700000Y-124460000D01*
X158750000Y-103505000D02*
X159305318Y-103505000D01*
X181650000Y-124420000D02*
X181610000Y-124460000D01*
X151790400Y-117602000D02*
X151638000Y-117602000D01*
X170180000Y-125095000D02*
X170307000Y-124968000D01*
X169545000Y-125095000D02*
X170180000Y-125095000D01*
X169799000Y-125095000D02*
X169545000Y-125095000D01*
X170561000Y-125095000D02*
X170180000Y-125095000D01*
D37*
X170180000Y-117983000D02*
X170180000Y-121285000D01*
X181610000Y-119380000D02*
X181610000Y-119995998D01*
X181610000Y-119995998D02*
X186614002Y-125000000D01*
X186614002Y-125000000D02*
X194820000Y-125000000D01*
X194118000Y-139000000D02*
X192532000Y-137414000D01*
D38*
X194820000Y-139000000D02*
X194118000Y-139000000D01*
D37*
X210820000Y-137000000D02*
X203782810Y-137000000D01*
X201782810Y-139000000D02*
X194820000Y-139000000D01*
X203782810Y-137000000D02*
X201782810Y-139000000D01*
D38*
X199898000Y-118364000D02*
X199644000Y-118110000D01*
X194758000Y-138938000D02*
X194820000Y-139000000D01*
D37*
X197104000Y-115316000D02*
X199225286Y-113194714D01*
X199225286Y-113194714D02*
X199225286Y-110807114D01*
X199225286Y-110807114D02*
X207010000Y-103022400D01*
X207010000Y-103022400D02*
X207010000Y-102870000D01*
X196850000Y-115772000D02*
X194004000Y-118618000D01*
X194004000Y-118618000D02*
X193040000Y-118618000D01*
D38*
X207010000Y-103632000D02*
X207010000Y-102870000D01*
D39*
X198120000Y-102870000D02*
X198120000Y-103022400D01*
X198120000Y-103022400D02*
X196531007Y-104611393D01*
X196531007Y-104611393D02*
X195402811Y-104611393D01*
X195402811Y-104611393D02*
X190794204Y-109220000D01*
X190794204Y-109220000D02*
X190500000Y-109220000D01*
D36*
X198120000Y-103135000D02*
X198120000Y-102870000D01*
D39*
X173990000Y-104140000D02*
X175510033Y-102619967D01*
X175510033Y-102619967D02*
X182160707Y-102619967D01*
X182160707Y-102619967D02*
X184336515Y-104795775D01*
X184336515Y-104795775D02*
X188668326Y-104795775D01*
X188668326Y-104795775D02*
X190540000Y-106667449D01*
D36*
X190540000Y-106667449D02*
X190540000Y-106680000D01*
X173736000Y-104140000D02*
X173990000Y-104140000D01*
D39*
X186690000Y-138176000D02*
X189738000Y-138176000D01*
D37*
X190500000Y-102717600D02*
X191884420Y-101333180D01*
X191884420Y-101333180D02*
X203085580Y-101333180D01*
X203085580Y-101333180D02*
X204470000Y-102717600D01*
D38*
X190500000Y-102870000D02*
X190500000Y-102717600D01*
X204470000Y-102717600D02*
X204470000Y-102870000D01*
D37*
X213233000Y-117602000D02*
X211531200Y-117602000D01*
X211531200Y-117602000D02*
X210482180Y-116552980D01*
X209550000Y-113538000D02*
X210317640Y-113538000D01*
X210317640Y-113538000D02*
X210482180Y-113702540D01*
X210482180Y-113702540D02*
X210482180Y-116552980D01*
X209550000Y-108920000D02*
X209550000Y-113538000D01*
X209550000Y-113538000D02*
X207518000Y-113538000D01*
X210284060Y-116967000D02*
X210284060Y-115716050D01*
X209550000Y-102870000D02*
X209550000Y-108920000D01*
D38*
X209550000Y-102870000D02*
X209550000Y-103022400D01*
X209550000Y-103632000D02*
X209550000Y-102870000D01*
D37*
X209550000Y-108920000D02*
X209159787Y-108920000D01*
X213233000Y-115600480D02*
X215531700Y-115600480D01*
X213233000Y-111252000D02*
X213233000Y-115600480D01*
X215531700Y-115600480D02*
X216484200Y-116552980D01*
X205270100Y-112809687D02*
X205270100Y-113538000D01*
D39*
X195580000Y-103022400D02*
X195580000Y-103411409D01*
X180975000Y-105410000D02*
X177165000Y-109220000D01*
X195580000Y-103411409D02*
X191072760Y-107918649D01*
X191072760Y-107918649D02*
X190038181Y-107918649D01*
X190038181Y-107918649D02*
X187529532Y-105410000D01*
X187529532Y-105410000D02*
X180975000Y-105410000D01*
X177165000Y-109220000D02*
X173990000Y-109220000D01*
D36*
X195580000Y-102870000D02*
X195580000Y-103022400D01*
D39*
X154431600Y-115382162D02*
X154431600Y-115806426D01*
X154431600Y-111251600D02*
X154431600Y-115382162D01*
X142128290Y-110601710D02*
X153781710Y-110601710D01*
X141224000Y-111506000D02*
X142128290Y-110601710D01*
X139852400Y-119380000D02*
X141224000Y-118008400D01*
X141224000Y-118008400D02*
X141224000Y-111506000D01*
X153781710Y-110601710D02*
X154431600Y-111251600D01*
D36*
X139700000Y-119380000D02*
X139852400Y-119380000D01*
D39*
X173437999Y-105529999D02*
X163691693Y-115276305D01*
X179088631Y-105529999D02*
X173437999Y-105529999D01*
X180478630Y-104140000D02*
X179088631Y-105529999D01*
X163691693Y-115276305D02*
X163691693Y-123871861D01*
X181610000Y-104140000D02*
X180478630Y-104140000D01*
X155448000Y-124587000D02*
X155448000Y-110925502D01*
X155448000Y-110925502D02*
X155462476Y-110911026D01*
X154179762Y-109628312D02*
X155462476Y-110911026D01*
X141747743Y-109628312D02*
X154179762Y-109628312D01*
X140171724Y-111204331D02*
X141747743Y-109628312D01*
X140171724Y-116368276D02*
X140171724Y-111204331D01*
D36*
X139700000Y-116840000D02*
X140171724Y-116368276D01*
X139547600Y-116840000D02*
X139700000Y-116840000D01*
D39*
X157895752Y-137922000D02*
X159372243Y-136445509D01*
X151892000Y-137922000D02*
X157895752Y-137922000D01*
X159372243Y-136445509D02*
X172144139Y-136445509D01*
X172144139Y-136445509D02*
X172858630Y-137160000D01*
X172858630Y-137160000D02*
X173990000Y-137160000D01*
X173990000Y-137160000D02*
X175346806Y-137160000D01*
X175346806Y-137160000D02*
X175858178Y-136648628D01*
X175858178Y-136648628D02*
X175858178Y-129706176D01*
X175858178Y-129706176D02*
X174422002Y-128270000D01*
X174422002Y-128270000D02*
X170180000Y-128270000D01*
X158420897Y-109923049D02*
X158420897Y-114681000D01*
X158420897Y-114681000D02*
X158420897Y-119685897D01*
X160020000Y-114681000D02*
X158420897Y-114681000D01*
X158420897Y-119685897D02*
X160020000Y-121285000D01*
X152002848Y-103505000D02*
X158420897Y-109923049D01*
D36*
X152002848Y-103505000D02*
X151765000Y-103505000D01*
D39*
X161544000Y-117983000D02*
X161544000Y-122221134D01*
X161544000Y-122221134D02*
X160797477Y-122967657D01*
X160797477Y-122967657D02*
X158972343Y-122967657D01*
X158972343Y-122967657D02*
X158369000Y-123571000D01*
X158467275Y-129892275D02*
X158467275Y-123669275D01*
X158467275Y-123669275D02*
X158369000Y-123571000D01*
X158467275Y-129892275D02*
X160020000Y-131445000D01*
X161544000Y-103759000D02*
X161544000Y-117983000D01*
X160020000Y-117983000D02*
X161544000Y-117983000D01*
D36*
X161544000Y-103759000D02*
X161290000Y-103505000D01*
D39*
X147320000Y-103505000D02*
X149245900Y-105430900D01*
X149245900Y-105430900D02*
X152674900Y-105430900D01*
X152674900Y-105430900D02*
X157442518Y-110198518D01*
X157442518Y-110198518D02*
X157442518Y-122714837D01*
X157442518Y-132780464D02*
X157442518Y-122714837D01*
X157425078Y-133421906D02*
X157425078Y-132797904D01*
X158623172Y-134620000D02*
X157425078Y-133421906D01*
X160020000Y-134620000D02*
X158623172Y-134620000D01*
X157425078Y-132797904D02*
X157442518Y-132780464D01*
X144780000Y-103505000D02*
X144780000Y-103688276D01*
X152400000Y-106426000D02*
X156464000Y-110490000D01*
X144780000Y-103688276D02*
X147517724Y-106426000D01*
X147517724Y-106426000D02*
X152400000Y-106426000D01*
X156464000Y-110490000D02*
X156464000Y-135382000D01*
X144780000Y-103505000D02*
X144780000Y-103698366D01*
X157027498Y-135945498D02*
X156464000Y-135382000D01*
X172664502Y-135945498D02*
X157027498Y-135945498D01*
X173990000Y-134620000D02*
X172664502Y-135945498D01*
X151892000Y-135382000D02*
X156464000Y-135382000D01*
X173990000Y-124460000D02*
X177777700Y-128247700D01*
X177777700Y-128247700D02*
X182398738Y-128247700D01*
X182398738Y-128247700D02*
X183392438Y-127254000D01*
X183392438Y-127254000D02*
X184912000Y-127254000D01*
D36*
X174055039Y-124525039D02*
X173990000Y-124460000D01*
D39*
X181610000Y-134620000D02*
X182626000Y-135636000D01*
X190098608Y-133000000D02*
X194820000Y-133000000D01*
X182626000Y-135636000D02*
X187462608Y-135636000D01*
X187462608Y-135636000D02*
X190098608Y-133000000D01*
X170180000Y-137795000D02*
X171450000Y-139065000D01*
X177165000Y-139065000D02*
X181610000Y-134620000D01*
X171450000Y-139065000D02*
X177165000Y-139065000D01*
X195580000Y-106680000D02*
X190447202Y-111812798D01*
X190447202Y-111812798D02*
X184202798Y-111812798D01*
X173482000Y-106680000D02*
X172720000Y-107442000D01*
X172720000Y-107442000D02*
X172720000Y-109799752D01*
X196342000Y-106691132D02*
X196342000Y-106680000D01*
X172720000Y-109799752D02*
X173410248Y-110490000D01*
X173410248Y-110490000D02*
X182880000Y-110490000D01*
X182880000Y-110490000D02*
X184202798Y-111812798D01*
D36*
X173482000Y-106680000D02*
X173990000Y-106680000D01*
D39*
X189738000Y-128016000D02*
X188832508Y-128016000D01*
X188832508Y-128016000D02*
X187275297Y-129573211D01*
X187275297Y-129573211D02*
X183467215Y-129573211D01*
X183467215Y-129573211D02*
X182264291Y-130776135D01*
X182264291Y-130776135D02*
X178577931Y-130776135D01*
X178577931Y-130776135D02*
X174801796Y-127000000D01*
X174801796Y-127000000D02*
X173990000Y-127000000D01*
X154431588Y-117057289D02*
X154431588Y-116633025D01*
X152044400Y-127762000D02*
X154431588Y-125374812D01*
X154431588Y-125374812D02*
X154431588Y-117057289D01*
D36*
X151892000Y-127762000D02*
X152044400Y-127762000D01*
D39*
X159136301Y-132545814D02*
X158568845Y-131978358D01*
X168825186Y-132545814D02*
X159136301Y-132545814D01*
X170180000Y-131191000D02*
X168825186Y-132545814D01*
X173990000Y-129540000D02*
X172085000Y-129540000D01*
X172085000Y-129540000D02*
X170180000Y-131445000D01*
X168796905Y-133109905D02*
X158239668Y-133109905D01*
X170180000Y-134493000D02*
X168796905Y-133109905D01*
X173990000Y-132080000D02*
X172720000Y-132080000D01*
X172720000Y-132080000D02*
X170180000Y-134620000D01*
X173990000Y-111760000D02*
X175281988Y-113051988D01*
X175281988Y-113051988D02*
X182458813Y-113051988D01*
X182458813Y-113051988D02*
X183483386Y-114076561D01*
X183483386Y-114076561D02*
X183483386Y-117785856D01*
X183483386Y-117785856D02*
X185438807Y-119741277D01*
X185438807Y-121288809D02*
X187029999Y-122880001D01*
X213360000Y-127110000D02*
X211470000Y-129000000D01*
X185438807Y-119741277D02*
X185438807Y-121288809D01*
X187029999Y-122880001D02*
X203032876Y-122880001D01*
X203032876Y-122880001D02*
X203474955Y-123322080D01*
X203474955Y-123322080D02*
X212521799Y-123322080D01*
X212521799Y-123322080D02*
X213360000Y-124160281D01*
X213360000Y-124160281D02*
X213360000Y-127110000D01*
D36*
X211470000Y-129000000D02*
X210820000Y-129000000D01*
D39*
X211470000Y-127000000D02*
X212725000Y-125745000D01*
X184882161Y-121439285D02*
X184882161Y-120172051D01*
X212725000Y-125745000D02*
X212725000Y-124454920D01*
X186867498Y-123424622D02*
X184882161Y-121439285D01*
X212725000Y-124454920D02*
X212217000Y-123946920D01*
X212217000Y-123946920D02*
X203220830Y-123946920D01*
X176530000Y-114300000D02*
X173990000Y-114300000D01*
X203220830Y-123946920D02*
X202698532Y-123424622D01*
X202698532Y-123424622D02*
X186867498Y-123424622D01*
X184882161Y-120172051D02*
X182851634Y-118141524D01*
X182851634Y-118141524D02*
X182851634Y-116379632D01*
X182851634Y-116379632D02*
X182042002Y-115570000D01*
X182042002Y-115570000D02*
X177800000Y-115570000D01*
X177800000Y-115570000D02*
X176530000Y-114300000D01*
D36*
X210820000Y-127000000D02*
X211470000Y-127000000D01*
D39*
X210820000Y-125000000D02*
X210437628Y-124617628D01*
X210437628Y-124617628D02*
X202943181Y-124617628D01*
X202943181Y-124617628D02*
X202320331Y-123994778D01*
X202320331Y-123994778D02*
X186730532Y-123994778D01*
X186730532Y-123994778D02*
X184235471Y-121499717D01*
X184235471Y-121499717D02*
X184235471Y-120371715D01*
X184235471Y-120371715D02*
X181973756Y-118110000D01*
X181973756Y-118110000D02*
X175260000Y-118110000D01*
X175260000Y-118110000D02*
X173990000Y-116840000D01*
D36*
X181610000Y-137160000D02*
X182118000Y-136652000D01*
D39*
X182118000Y-136652000D02*
X188276908Y-136652000D01*
X189928908Y-135000000D02*
X194820000Y-135000000D01*
X188276908Y-136652000D02*
X189928908Y-135000000D01*
X194170000Y-129000000D02*
X192978703Y-130191297D01*
X192978703Y-130191297D02*
X183997266Y-130191297D01*
X183997266Y-130191297D02*
X182108563Y-132080000D01*
X182108563Y-132080000D02*
X181610000Y-132080000D01*
D36*
X194820000Y-129000000D02*
X194170000Y-129000000D01*
D39*
X194820000Y-127000000D02*
X194391361Y-126571361D01*
X194391361Y-126571361D02*
X188353887Y-126571361D01*
X188353887Y-126571361D02*
X186048337Y-128876911D01*
X186048337Y-128876911D02*
X182781303Y-128876911D01*
X182781303Y-128876911D02*
X182118214Y-129540000D01*
X182118214Y-129540000D02*
X181610000Y-129540000D01*
D36*
X194820000Y-127000000D02*
X194170000Y-127000000D01*
D39*
X181610000Y-127000000D02*
X183053855Y-125556145D01*
X183053855Y-125556145D02*
X185624325Y-125556145D01*
X185624325Y-125556145D02*
X186032291Y-125964111D01*
X186032291Y-125964111D02*
X196219113Y-125964111D01*
X196219113Y-125964111D02*
X196596000Y-126340998D01*
X196596000Y-126340998D02*
X196596000Y-129874000D01*
X196596000Y-129874000D02*
X195470000Y-131000000D01*
X181610000Y-126571675D02*
X181610000Y-127000000D01*
D36*
X194820000Y-131000000D02*
X195470000Y-131000000D01*
D39*
X172466000Y-115570000D02*
X171390427Y-116645573D01*
X181610000Y-116840000D02*
X177038000Y-116840000D01*
X169325444Y-116633509D02*
X165511531Y-120447422D01*
X170827757Y-116633509D02*
X169325444Y-116633509D01*
X170839821Y-116645573D02*
X170827757Y-116633509D01*
X171390427Y-116645573D02*
X170839821Y-116645573D01*
X175768000Y-115570000D02*
X172466000Y-115570000D01*
X177038000Y-116840000D02*
X175768000Y-115570000D01*
X162560000Y-114837210D02*
X162560000Y-125730000D01*
X162560000Y-125730000D02*
X160020000Y-128270000D01*
X170213020Y-107184190D02*
X162560000Y-114837210D01*
X160020000Y-128262785D02*
X160020000Y-128270000D01*
X170213020Y-106934000D02*
X170213020Y-107184190D01*
X184912000Y-117094000D02*
X188043820Y-117094000D01*
X191223900Y-113913920D02*
X191223900Y-113538000D01*
X188043820Y-117094000D02*
X191223900Y-113913920D01*
X191223900Y-114592100D02*
X191223900Y-113538000D01*
M02*
