G04 #@! TF.FileFunction,Legend,Bot*
%FSLAX46Y46*%
G04 Gerber Fmt 4.6, Leading zero omitted, Abs format (unit mm)*
G04 Created by KiCad (PCBNEW 4.0.5+dfsg1-4~bpo8+1) date Wed Apr 26 23:39:42 2017*
%MOMM*%
%LPD*%
G01*
G04 APERTURE LIST*
%ADD10C,0.100000*%
%ADD11C,0.300000*%
%ADD12C,0.150000*%
%ADD13C,0.250000*%
%ADD14C,0.254000*%
G04 APERTURE END LIST*
D10*
X219456000Y-140716000D02*
X136144000Y-140716000D01*
X219456000Y-100584000D02*
X219456000Y-140716000D01*
X136144000Y-100584000D02*
X219456000Y-100584000D01*
X136144000Y-140716000D02*
X136144000Y-100584000D01*
D11*
X157214000Y-112692571D02*
X157214000Y-111192571D01*
X156499714Y-112692571D02*
X156499714Y-111192571D01*
X156142571Y-111192571D01*
X155928286Y-111264000D01*
X155785428Y-111406857D01*
X155714000Y-111549714D01*
X155642571Y-111835429D01*
X155642571Y-112049714D01*
X155714000Y-112335429D01*
X155785428Y-112478286D01*
X155928286Y-112621143D01*
X156142571Y-112692571D01*
X156499714Y-112692571D01*
D12*
X187550000Y-108920000D02*
G75*
G03X187550000Y-108920000I-2000000J0D01*
G01*
X187550000Y-132920000D02*
G75*
G03X187550000Y-132920000I-2000000J0D01*
G01*
X212550000Y-101920000D02*
X212550000Y-139920000D01*
X212550000Y-139920000D02*
X159550000Y-139920000D01*
X159550000Y-139920000D02*
X159550000Y-101920000D01*
X159550000Y-101920000D02*
X212550000Y-101920000D01*
X138120381Y-116054761D02*
X137120381Y-116054761D01*
X137215619Y-116483332D02*
X137168000Y-116530951D01*
X137120381Y-116626189D01*
X137120381Y-116864285D01*
X137168000Y-116959523D01*
X137215619Y-117007142D01*
X137310857Y-117054761D01*
X137406095Y-117054761D01*
X137548952Y-117007142D01*
X138120381Y-116435713D01*
X138120381Y-117054761D01*
X138025143Y-118054761D02*
X138072762Y-118007142D01*
X138120381Y-117864285D01*
X138120381Y-117769047D01*
X138072762Y-117626189D01*
X137977524Y-117530951D01*
X137882286Y-117483332D01*
X137691810Y-117435713D01*
X137548952Y-117435713D01*
X137358476Y-117483332D01*
X137263238Y-117530951D01*
X137168000Y-117626189D01*
X137120381Y-117769047D01*
X137120381Y-117864285D01*
X137168000Y-118007142D01*
X137215619Y-118054761D01*
X138120381Y-119245237D02*
X137120381Y-119245237D01*
X137501333Y-119245237D02*
X137453714Y-119340475D01*
X137453714Y-119530952D01*
X137501333Y-119626190D01*
X137548952Y-119673809D01*
X137644190Y-119721428D01*
X137929905Y-119721428D01*
X138025143Y-119673809D01*
X138072762Y-119626190D01*
X138120381Y-119530952D01*
X138120381Y-119340475D01*
X138072762Y-119245237D01*
X138120381Y-120149999D02*
X137453714Y-120149999D01*
X137644190Y-120149999D02*
X137548952Y-120197618D01*
X137501333Y-120245237D01*
X137453714Y-120340475D01*
X137453714Y-120435714D01*
X138072762Y-121150000D02*
X138120381Y-121054762D01*
X138120381Y-120864285D01*
X138072762Y-120769047D01*
X137977524Y-120721428D01*
X137596571Y-120721428D01*
X137501333Y-120769047D01*
X137453714Y-120864285D01*
X137453714Y-121054762D01*
X137501333Y-121150000D01*
X137596571Y-121197619D01*
X137691810Y-121197619D01*
X137787048Y-120721428D01*
X138120381Y-122054762D02*
X137596571Y-122054762D01*
X137501333Y-122007143D01*
X137453714Y-121911905D01*
X137453714Y-121721428D01*
X137501333Y-121626190D01*
X138072762Y-122054762D02*
X138120381Y-121959524D01*
X138120381Y-121721428D01*
X138072762Y-121626190D01*
X137977524Y-121578571D01*
X137882286Y-121578571D01*
X137787048Y-121626190D01*
X137739429Y-121721428D01*
X137739429Y-121959524D01*
X137691810Y-122054762D01*
X138120381Y-122530952D02*
X137120381Y-122530952D01*
X137739429Y-122626190D02*
X138120381Y-122911905D01*
X137453714Y-122911905D02*
X137834667Y-122530952D01*
X138120381Y-123483333D02*
X138072762Y-123388095D01*
X138025143Y-123340476D01*
X137929905Y-123292857D01*
X137644190Y-123292857D01*
X137548952Y-123340476D01*
X137501333Y-123388095D01*
X137453714Y-123483333D01*
X137453714Y-123626191D01*
X137501333Y-123721429D01*
X137548952Y-123769048D01*
X137644190Y-123816667D01*
X137929905Y-123816667D01*
X138025143Y-123769048D01*
X138072762Y-123721429D01*
X138120381Y-123626191D01*
X138120381Y-123483333D01*
X137453714Y-124673810D02*
X138120381Y-124673810D01*
X137453714Y-124245238D02*
X137977524Y-124245238D01*
X138072762Y-124292857D01*
X138120381Y-124388095D01*
X138120381Y-124530953D01*
X138072762Y-124626191D01*
X138025143Y-124673810D01*
X137453714Y-125007143D02*
X137453714Y-125388095D01*
X137120381Y-125150000D02*
X137977524Y-125150000D01*
X138072762Y-125197619D01*
X138120381Y-125292857D01*
X138120381Y-125388095D01*
D13*
X213189429Y-112578572D02*
X213118000Y-112650001D01*
X213046571Y-112792858D01*
X213046571Y-113150001D01*
X213118000Y-113292858D01*
X213189429Y-113364287D01*
X213332286Y-113435715D01*
X213475143Y-113435715D01*
X213689429Y-113364287D01*
X214546571Y-112507144D01*
X214546571Y-113435715D01*
X214403714Y-114078572D02*
X214475143Y-114150000D01*
X214546571Y-114078572D01*
X214475143Y-114007143D01*
X214403714Y-114078572D01*
X214546571Y-114078572D01*
X213046571Y-114650001D02*
X213046571Y-115650001D01*
X214546571Y-115007144D01*
X213975143Y-117364286D02*
X213975143Y-118507143D01*
X213046571Y-121007143D02*
X213046571Y-120721429D01*
X213118000Y-120578572D01*
X213189429Y-120507143D01*
X213403714Y-120364286D01*
X213689429Y-120292857D01*
X214260857Y-120292857D01*
X214403714Y-120364286D01*
X214475143Y-120435714D01*
X214546571Y-120578572D01*
X214546571Y-120864286D01*
X214475143Y-121007143D01*
X214403714Y-121078572D01*
X214260857Y-121150000D01*
X213903714Y-121150000D01*
X213760857Y-121078572D01*
X213689429Y-121007143D01*
X213618000Y-120864286D01*
X213618000Y-120578572D01*
X213689429Y-120435714D01*
X213760857Y-120364286D01*
X213903714Y-120292857D01*
X214403714Y-121792857D02*
X214475143Y-121864285D01*
X214546571Y-121792857D01*
X214475143Y-121721428D01*
X214403714Y-121792857D01*
X214546571Y-121792857D01*
X213046571Y-122792857D02*
X213046571Y-122935714D01*
X213118000Y-123078571D01*
X213189429Y-123150000D01*
X213332286Y-123221429D01*
X213618000Y-123292857D01*
X213975143Y-123292857D01*
X214260857Y-123221429D01*
X214403714Y-123150000D01*
X214475143Y-123078571D01*
X214546571Y-122935714D01*
X214546571Y-122792857D01*
X214475143Y-122650000D01*
X214403714Y-122578571D01*
X214260857Y-122507143D01*
X213975143Y-122435714D01*
X213618000Y-122435714D01*
X213332286Y-122507143D01*
X213189429Y-122578571D01*
X213118000Y-122650000D01*
X213046571Y-122792857D01*
X213046571Y-124864285D02*
X214546571Y-125364285D01*
X213046571Y-125864285D01*
X214546571Y-126364285D02*
X213046571Y-126364285D01*
X213046571Y-126721428D01*
X213118000Y-126935713D01*
X213260857Y-127078571D01*
X213403714Y-127149999D01*
X213689429Y-127221428D01*
X213903714Y-127221428D01*
X214189429Y-127149999D01*
X214332286Y-127078571D01*
X214475143Y-126935713D01*
X214546571Y-126721428D01*
X214546571Y-126364285D01*
X214403714Y-128721428D02*
X214475143Y-128649999D01*
X214546571Y-128435713D01*
X214546571Y-128292856D01*
X214475143Y-128078571D01*
X214332286Y-127935713D01*
X214189429Y-127864285D01*
X213903714Y-127792856D01*
X213689429Y-127792856D01*
X213403714Y-127864285D01*
X213260857Y-127935713D01*
X213118000Y-128078571D01*
X213046571Y-128292856D01*
X213046571Y-128435713D01*
X213118000Y-128649999D01*
X213189429Y-128721428D01*
D14*
G36*
X157353000Y-110617000D02*
X142367000Y-110617000D01*
X142367000Y-105537000D01*
X157353000Y-105537000D01*
X157353000Y-110617000D01*
X157353000Y-110617000D01*
G37*
X157353000Y-110617000D02*
X142367000Y-110617000D01*
X142367000Y-105537000D01*
X157353000Y-105537000D01*
X157353000Y-110617000D01*
M02*
