<?xml version="1.0" encoding="UTF-8" standalone="no"?>
<svg
   xmlns:osb="http://www.openswatchbook.org/uri/2009/osb"
   xmlns:dc="http://purl.org/dc/elements/1.1/"
   xmlns:cc="http://creativecommons.org/ns#"
   xmlns:rdf="http://www.w3.org/1999/02/22-rdf-syntax-ns#"
   xmlns:svg="http://www.w3.org/2000/svg"
   xmlns="http://www.w3.org/2000/svg"
   xmlns:sodipodi="http://sodipodi.sourceforge.net/DTD/sodipodi-0.dtd"
   xmlns:inkscape="http://www.inkscape.org/namespaces/inkscape"
   width="100.37514mm"
   height="45.833435mm"
   id="svg5904"
   version="1.1"
   inkscape:version="1.0.2 (1.0.2+r75+1)"
   sodipodi:docname="logo voor KiCad 100mm.svg">
  <defs
     id="defs5906">
    <linearGradient
       id="linearGradient3502"
       osb:paint="solid">
      <stop
         style="stop-color:#0000ac;stop-opacity:1;"
         offset="0"
         id="stop3500" />
    </linearGradient>
    <filter
       id="filter7526"
       x="-0.25"
       width="1.5"
       y="-0.25"
       height="1.5"
       inkscape:menu="Non realistic 3D shaders"
       inkscape:menu-tooltip="Fluid brushed cartoon drawing"
       inkscape:label="Comics fluid"
       color-interpolation-filters="sRGB">
      <feGaussianBlur
         id="feGaussianBlur7528"
         result="result8"
         stdDeviation="2.7401023890784981 7.8590443686006832" />
      <feComposite
         id="feComposite7530"
         in2="result8"
         in="result8"
         operator="xor"
         result="result6" />
      <feDisplacementMap
         id="feDisplacementMap7532"
         in2="result6"
         result="result4"
         scale="100"
         yChannelSelector="A"
         xChannelSelector="A"
         in="result6" />
      <feComposite
         id="feComposite7534"
         in2="result4"
         k1="5"
         in="result8"
         operator="arithmetic"
         result="result2"
         k2="0"
         k3="0"
         k4="0" />
      <feComposite
         id="feComposite7536"
         in2="result2"
         operator="in"
         in="result6"
         result="fbSourceGraphic" />
    </filter>
    <filter
       id="filter8038"
       inkscape:label="Rough and glossy"
       inkscape:menu="Textures"
       inkscape:menu-tooltip="Crumpled glossy paper effect which can be used for pictures as for objects"
       color-interpolation-filters="sRGB">
      <feTurbulence
         id="feTurbulence8040"
         type="fractalNoise"
         numOctaves="7"
         baseFrequency="0.02"
         seed="55"
         result="result0" />
      <feDiffuseLighting
         id="feDiffuseLighting8042"
         surfaceScale="4"
         diffuseConstant="1"
         kernelUnitLength="1"
         result="result1"
         in="result0">
        <feDistantLight
           id="feDistantLight8044"
           azimuth="235"
           elevation="60" />
      </feDiffuseLighting>
      <feSpecularLighting
         id="feSpecularLighting8046"
         in="result0"
         surfaceScale="3"
         specularConstant="1"
         specularExponent="25"
         kernelUnitLength="1"
         result="result3">
        <feDistantLight
           id="feDistantLight8048"
           azimuth="235"
           elevation="55" />
      </feSpecularLighting>
      <feComposite
         id="feComposite8050"
         in2="SourceGraphic"
         in="result1"
         operator="arithmetic"
         k1="1"
         result="result2"
         k2="0"
         k3="0"
         k4="0" />
      <feComposite
         id="feComposite8052"
         in2="result3"
         in="result2"
         operator="arithmetic"
         k2="1"
         k3="1"
         result="result4"
         k1="0"
         k4="0" />
      <feComposite
         id="feComposite8054"
         in2="SourceAlpha"
         operator="in"
         in="result4"
         result="fbSourceGraphic" />
      <feDisplacementMap
         id="feDisplacementMap8056"
         in2="result0"
         scale="7"
         yChannelSelector="G"
         xChannelSelector="R" />
    </filter>
    <filter
       id="filter8844"
       inkscape:label="Roughen"
       inkscape:menu="ABCs"
       inkscape:menu-tooltip="Small-scale roughening to edges and content"
       color-interpolation-filters="sRGB">
      <feTurbulence
         id="feTurbulence8846"
         numOctaves="5"
         seed="236"
         type="turbulence"
         baseFrequency="0.017595307917888565 0.03519061583577713"
         result="result91" />
      <feDisplacementMap
         id="feDisplacementMap8848"
         in2="result91"
         scale="6.6"
         yChannelSelector="G"
         xChannelSelector="R"
         in="SourceGraphic" />
    </filter>
    <filter
       id="filter9466"
       inkscape:menu-tooltip="Partly opaque water color effect with bleed"
       inkscape:menu="Textures"
       inkscape:label="Gouache"
       color-interpolation-filters="sRGB">
      <feGaussianBlur
         id="feGaussianBlur9468"
         stdDeviation="3"
         result="result5"
         in="SourceGraphic" />
      <feTurbulence
         id="feTurbulence9470"
         result="result1"
         baseFrequency="0.02"
         type="fractalNoise"
         seed="0"
         numOctaves="3" />
      <feDisplacementMap
         id="feDisplacementMap9472"
         in2="result1"
         result="result3"
         in="SourceGraphic"
         xChannelSelector="R"
         yChannelSelector="G"
         scale="30" />
      <feComposite
         id="feComposite9474"
         in2="result1"
         result="result4"
         in="result3"
         operator="out" />
      <feComposite
         id="feComposite9476"
         in2="result4"
         result="result6"
         operator="arithmetic"
         k2="1"
         k1="0.3"
         k3="0.3"
         k4="0" />
      <feComposite
         id="feComposite9478"
         in2="result5"
         in="result6"
         operator="over" />
    </filter>
    <filter
       id="filter10024"
       inkscape:label="Ripple"
       inkscape:menu="Distort"
       inkscape:menu-tooltip="Horizontal rippling of edges"
       color-interpolation-filters="sRGB">
      <feTurbulence
         id="feTurbulence10026"
         numOctaves="1"
         baseFrequency="0.002 0.107" />
      <feColorMatrix
         id="feColorMatrix10028"
         values="2 0 0 0 0 0 0 0 0 0 0 0 0 0 0 0 0 0 0.5 0.5"
         result="result91" />
      <feDisplacementMap
         id="feDisplacementMap10030"
         in2="result91"
         yChannelSelector="A"
         xChannelSelector="R"
         scale="14.3"
         in="SourceGraphic" />
    </filter>
    <filter
       id="filter10032"
       inkscape:label="Ripple"
       inkscape:menu="Distort"
       inkscape:menu-tooltip="Horizontal rippling of edges"
       color-interpolation-filters="sRGB">
      <feTurbulence
         id="feTurbulence10034"
         numOctaves="4"
         baseFrequency="0.0055865921787709499 0.01229050279329609"
         type="turbulence"
         seed="191" />
      <feColorMatrix
         id="feColorMatrix10036"
         values="2 0 0 0 0 0 0 0 0 0 0 0 0 0 0 0 0 0 0.5 0.5"
         result="result91" />
      <feDisplacementMap
         id="feDisplacementMap10038"
         in2="result91"
         yChannelSelector="A"
         xChannelSelector="R"
         scale="14.3"
         in="SourceGraphic" />
    </filter>
    <filter
       id="filter10040"
       inkscape:label="Ripple"
       inkscape:menu="Distort"
       inkscape:menu-tooltip="Horizontal rippling of edges"
       color-interpolation-filters="sRGB">
      <feTurbulence
         id="feTurbulence10042"
         numOctaves="1"
         baseFrequency="0.002 0.107" />
      <feColorMatrix
         id="feColorMatrix10044"
         values="2 0 0 0 0 0 0 0 0 0 0 0 0 0 0 0 0 0 0.5 0.5"
         result="result91" />
      <feDisplacementMap
         id="feDisplacementMap10046"
         in2="result91"
         yChannelSelector="A"
         xChannelSelector="R"
         scale="14.3"
         in="SourceGraphic" />
    </filter>
    <filter
       id="filter11044"
       height="1.3"
       width="1.3"
       y="-0.15000001"
       x="-0.15000001"
       inkscape:menu-tooltip="Silk carpet texture, horizontal stripes"
       inkscape:menu="Textures"
       inkscape:label="Silk carpet"
       color-interpolation-filters="sRGB">
      <feTurbulence
         id="feTurbulence11046"
         type="turbulence"
         numOctaves="2"
         baseFrequency="0.0068965517241379309 0.0049261083743842374"
         seed="10" />
      <feColorMatrix
         id="feColorMatrix11048"
         result="result5"
         values="1 0 0 0 0 0 1 0 0 0 0 0 1 0 0 0 0 0 1.3 0 " />
      <feComposite
         id="feComposite11050"
         in2="result5"
         in="SourceGraphic"
         operator="out" />
      <feMorphology
         id="feMorphology11052"
         operator="dilate"
         radius="1.3"
         result="result3" />
      <feTurbulence
         id="feTurbulence11054"
         numOctaves="3"
         baseFrequency="0.08 0.05"
         type="fractalNoise"
         seed="7"
         result="result6" />
      <feGaussianBlur
         id="feGaussianBlur11056"
         stdDeviation="0.5"
         result="result7" />
      <feDisplacementMap
         id="feDisplacementMap11058"
         in2="result7"
         in="result3"
         xChannelSelector="R"
         yChannelSelector="G"
         scale="3"
         result="result4" />
      <feComposite
         id="feComposite11060"
         in2="result4"
         in="result4"
         k1="1"
         result="result2"
         operator="arithmetic"
         k2="1"
         k3="0"
         k4="0" />
      <feBlend
         id="feBlend11062"
         in2="result4"
         mode="normal"
         in="result2" />
    </filter>
    <filter
       id="filter11064"
       height="1.3"
       width="1.3"
       y="-0.15000001"
       x="-0.15000001"
       inkscape:menu-tooltip="Silk carpet texture, horizontal stripes"
       inkscape:menu="Textures"
       inkscape:label="Silk carpet"
       color-interpolation-filters="sRGB">
      <feTurbulence
         id="feTurbulence11066"
         type="turbulence"
         numOctaves="2"
         baseFrequency="0.01 0.11"
         seed="10" />
      <feColorMatrix
         id="feColorMatrix11068"
         result="result5"
         values="1 0 0 0 0 0 1 0 0 0 0 0 1 0 0 0 0 0 1.3 0 " />
      <feComposite
         id="feComposite11070"
         in2="result5"
         in="SourceGraphic"
         operator="out" />
      <feMorphology
         id="feMorphology11072"
         operator="dilate"
         radius="1.3"
         result="result3" />
      <feTurbulence
         id="feTurbulence11074"
         numOctaves="3"
         baseFrequency="0.08 0.05"
         type="fractalNoise"
         seed="7"
         result="result6" />
      <feGaussianBlur
         id="feGaussianBlur11076"
         stdDeviation="0.5"
         result="result7" />
      <feDisplacementMap
         id="feDisplacementMap11078"
         in2="result7"
         in="result3"
         xChannelSelector="R"
         yChannelSelector="G"
         scale="3"
         result="result4" />
      <feComposite
         id="feComposite11080"
         in2="result4"
         in="result4"
         k1="1"
         result="result2"
         operator="arithmetic"
         k2="1"
         k3="0"
         k4="0" />
      <feBlend
         id="feBlend11082"
         in2="result4"
         mode="normal"
         in="result2" />
    </filter>
    <filter
       id="filter11084"
       height="1.3"
       width="1.3"
       y="-0.15000001"
       x="-0.15000001"
       inkscape:menu-tooltip="Silk carpet texture, horizontal stripes"
       inkscape:menu="Textures"
       inkscape:label="Silk carpet"
       color-interpolation-filters="sRGB">
      <feTurbulence
         id="feTurbulence11086"
         type="turbulence"
         numOctaves="2"
         baseFrequency="0.01 0.11"
         seed="10" />
      <feColorMatrix
         id="feColorMatrix11088"
         result="result5"
         values="1 0 0 0 0 0 1 0 0 0 0 0 1 0 0 0 0 0 1.3 0 " />
      <feComposite
         id="feComposite11090"
         in2="result5"
         in="SourceGraphic"
         operator="out" />
      <feMorphology
         id="feMorphology11092"
         operator="dilate"
         radius="1.3"
         result="result3" />
      <feTurbulence
         id="feTurbulence11094"
         numOctaves="3"
         baseFrequency="0.08 0.05"
         type="fractalNoise"
         seed="7"
         result="result6" />
      <feGaussianBlur
         id="feGaussianBlur11096"
         stdDeviation="0.5"
         result="result7" />
      <feDisplacementMap
         id="feDisplacementMap11098"
         in2="result7"
         in="result3"
         xChannelSelector="R"
         yChannelSelector="G"
         scale="3"
         result="result4" />
      <feComposite
         id="feComposite11100"
         in2="result4"
         in="result4"
         k1="1"
         result="result2"
         operator="arithmetic"
         k2="1"
         k3="0"
         k4="0" />
      <feBlend
         id="feBlend11102"
         in2="result4"
         mode="normal"
         in="result2" />
    </filter>
  </defs>
  <sodipodi:namedview
     id="base"
     pagecolor="#ffffff"
     bordercolor="#666666"
     borderopacity="1.0"
     inkscape:pageopacity="0.0"
     inkscape:pageshadow="2"
     inkscape:zoom="6.5303147"
     inkscape:cx="196.11514"
     inkscape:cy="58.967098"
     inkscape:document-units="px"
     inkscape:current-layer="g11127"
     showgrid="false"
     inkscape:window-width="1280"
     inkscape:window-height="964"
     inkscape:window-x="0"
     inkscape:window-y="27"
     inkscape:window-maximized="1"
     fit-margin-top="0"
     fit-margin-left="0"
     fit-margin-right="0"
     fit-margin-bottom="0"
     units="mm"
     inkscape:snap-global="false"
     inkscape:document-rotation="0" />
  <metadata
     id="metadata5909">
    <rdf:RDF>
      <cc:Work
         rdf:about="">
        <dc:format>image/svg+xml</dc:format>
        <dc:type
           rdf:resource="http://purl.org/dc/dcmitype/StillImage" />
        <dc:title></dc:title>
      </cc:Work>
    </rdf:RDF>
  </metadata>
  <g
     inkscape:label="F.SilkS"
     inkscape:groupmode="layer"
     id="layer1"
     transform="translate(-150.31827,-409.31885)">
    <g
       id="g11127"
       inkscape:export-filename="/home/giplt/documents/ua/meetjestad/logo.png"
       inkscape:export-xdpi="60.869999"
       inkscape:export-ydpi="60.869999">
      <g
         id="text8058"
         style="font-style:normal;font-variant:normal;font-weight:normal;font-stretch:normal;font-size:40px;line-height:125%;font-family:Dosis;-inkscape-font-specification:Dosis;letter-spacing:0px;word-spacing:0px;fill:#000000;fill-opacity:1;stroke:none"
         transform="matrix(0.98001603,0,0,0.98001603,6.7945874,9.9036431)">
        <path
           id="path11105"
           style="font-weight:bold;font-size:72px;fill:#000000;fill-opacity:1;stroke:none;stroke-width:0.727273"
           d="m 214.1658,453.4209 v 22.51636 c 0,1.41381 1.67564,2.14691 3.40364,2.14691 1.67563,0 3.40363,-0.7331 3.40363,-2.14691 v -32.72727 c 0,-2.51345 -1.67564,-3.40364 -3.40363,-3.40364 -2.46109,0 -3.6131,0.52364 -5.34109,3.6131 l -6.44073,11.72945 -6.44073,-11.72945 c -1.728,-3.08946 -2.82764,-3.6131 -5.28873,-3.6131 -1.728,0 -3.40363,0.89019 -3.40363,3.40364 v 32.72727 c 0,1.41381 1.67563,2.14691 3.40363,2.14691 1.67563,0 3.40364,-0.7331 3.40364,-2.14691 v -22.93527 l 6.02182,11.31055 c 0.576,1.04726 1.41382,1.36145 2.25164,1.36145 0.83781,0 1.728,-0.31419 2.304,-1.36145 l 6.12654,-10.89164"
           inkscape:connector-curvature="0" />
        <path
           id="path11107"
           style="font-weight:bold;font-size:72px;fill:#000000;fill-opacity:1;stroke:none;stroke-width:0.727273"
           d="m 236.9628,452.89726 c -6.38836,0 -11.46764,4.81746 -11.46764,10.47273 v 4.45091 c 0,6.44072 5.23637,10.73455 12.672,10.73455 5.6029,0 9.216,-2.56583 9.216,-4.34619 0,-1.04727 -0.99491,-2.98472 -2.56582,-2.98472 -1.57091,0 -2.98472,1.98981 -6.44072,1.98981 -3.66545,0 -6.12655,-1.98982 -6.12655,-5.0269 v -0.78546 h 10.62982 c 2.35636,0 4.86982,-0.20946 4.86982,-4.66036 0,-5.81237 -5.02692,-9.84437 -10.78691,-9.84437 m -4.71273,10.52509 v -1.46618 c 0,-2.51345 2.19927,-4.08436 4.55564,-4.08436 2.51345,0 4.608,1.67564 4.608,4.13673 0,1.15199 -0.41891,1.41381 -1.51855,1.41381 h -7.64509"
           inkscape:connector-curvature="0" />
        <path
           id="path11109"
           style="font-weight:bold;font-size:72px;fill:#000000;fill-opacity:1;stroke:none;stroke-width:0.727273"
           d="m 262.32643,452.89726 c -6.38835,0 -11.46763,4.81746 -11.46763,10.47273 v 4.45091 c 0,6.44072 5.23637,10.73455 12.672,10.73455 5.6029,0 9.216,-2.56583 9.216,-4.34619 0,-1.04727 -0.99491,-2.98472 -2.56582,-2.98472 -1.57091,0 -2.98473,1.98981 -6.44073,1.98981 -3.66545,0 -6.12654,-1.98982 -6.12654,-5.0269 v -0.78546 h 10.62981 c 2.35637,0 4.86982,-0.20946 4.86982,-4.66036 0,-5.81237 -5.02691,-9.84437 -10.78691,-9.84437 m -4.71272,10.52509 v -1.46618 c 0,-2.51345 2.19927,-4.08436 4.55563,-4.08436 2.51346,0 4.608,1.67564 4.608,4.13673 0,1.15199 -0.41891,1.41381 -1.51854,1.41381 h -7.64509"
           inkscape:connector-curvature="0" />
        <path
           id="path11111"
           style="font-weight:bold;font-size:72px;fill:#000000;fill-opacity:1;stroke:none;stroke-width:0.727273"
           d="m 283.86752,458.13363 h 6.17891 c 1.09964,0 1.728,-1.20437 1.728,-2.46109 0,-1.20437 -0.62836,-2.46109 -1.728,-2.46109 h -6.17891 v -9.00655 c 0,-1.25673 -1.67563,-2.09455 -3.40363,-2.09455 -1.57091,0 -3.35127,0.83782 -3.35127,2.09455 v 25.39636 c 0,5.91709 3.40364,8.48291 9.68727,8.48291 h 2.04218 c 1.93745,0 2.88,-1.41382 2.88,-2.88 0,-1.41382 -0.94255,-2.82763 -2.88,-2.82763 h -2.04218 c -2.19927,0 -2.93237,-0.7331 -2.93237,-2.77528 v -11.46763"
           inkscape:connector-curvature="0" />
        <path
           style="font-weight:bold;font-size:72px;fill:#000000;fill-opacity:1;stroke:none;stroke-width:0.727273"
           d="m 309.15262,453.21145 c -1.8851,0 -3.29891,0.83781 -3.29891,2.09454 v 24.45382 c 0,2.40872 -0.20946,4.18909 -2.09455,4.18909 -1.41382,0 -2.56582,1.152 -2.56582,2.93236 0,1.36145 0.68074,2.77528 3.50837,2.77528 5.23635,0 7.90691,-4.08437 7.90691,-9.89673 v -24.45382 c 0,-1.25673 -1.51855,-2.09454 -3.456,-2.09454"
           id="path7551" />
        <path
           style="font-weight:bold;font-size:72px;fill:#000000;fill-opacity:1;stroke:none;stroke-width:0.727273"
           d="m 309.20498,441.06308 c -2.09455,0 -3.71782,1.51855 -3.71782,3.29891 0,1.72799 1.62327,3.29891 3.71782,3.29891 2.04218,0 3.66545,-1.57092 3.66545,-3.29891 0,-1.78036 -1.62327,-3.29891 -3.66545,-3.29891"
           id="path11113" />
        <path
           id="path11115"
           style="font-weight:bold;font-size:72px;fill:#000000;fill-opacity:1;stroke:none;stroke-width:0.727273"
           d="m 328.39462,452.89726 c -6.38836,0 -11.46764,4.81746 -11.46764,10.47273 v 4.45091 c 0,6.44072 5.23637,10.73455 12.672,10.73455 5.6029,0 9.216,-2.56583 9.216,-4.34619 0,-1.04727 -0.99491,-2.98472 -2.56582,-2.98472 -1.57091,0 -2.98473,1.98981 -6.44073,1.98981 -3.66544,0 -6.12654,-1.98982 -6.12654,-5.0269 v -0.78546 h 10.62982 c 2.35636,0 4.86981,-0.20946 4.86981,-4.66036 0,-5.81237 -5.02691,-9.84437 -10.7869,-9.84437 m -4.71273,10.52509 v -1.46618 c 0,-2.51345 2.19927,-4.08436 4.55563,-4.08436 2.51346,0 4.608,1.67564 4.608,4.13673 0,1.15199 -0.4189,1.41381 -1.51854,1.41381 h -7.64509"
           inkscape:connector-curvature="0" />
        <path
           id="path11117"
           style="font-weight:bold;font-size:72px;fill:#000000;fill-opacity:1;stroke:none;stroke-width:0.727273"
           d="m 361.57189,473.42381 c -4.39854,0 -5.55055,-2.35636 -7.06909,-2.35636 -1.30909,0 -2.25164,1.88509 -2.25164,2.98472 0,2.304 4.13674,4.50328 9.47782,4.50328 6.1789,0 9.63491,-2.98474 9.63491,-7.6451 0,-9.32072 -12.56727,-6.70255 -12.56727,-10.52509 0,-1.04727 1.04728,-2.35636 3.66545,-2.35636 2.88,0 4.50327,1.51855 5.76,1.51855 1.57091,0 2.46109,-2.30401 2.46109,-3.24655 0,-1.93745 -4.08436,-3.40364 -8.32582,-3.40364 -7.01672,0 -9.37309,4.08437 -9.37309,7.80219 0,8.74471 12.41018,5.86472 12.41018,10.47272 0,1.04727 -0.73309,2.25164 -3.82254,2.25164"
           inkscape:connector-curvature="0" />
        <path
           id="path11119"
           style="font-weight:bold;font-size:72px;fill:#000000;fill-opacity:1;stroke:none;stroke-width:0.727273"
           d="m 382.04934,458.13363 h 6.17891 c 1.09964,0 1.728,-1.20437 1.728,-2.46109 0,-1.20437 -0.62836,-2.46109 -1.728,-2.46109 h -6.17891 v -9.00655 c 0,-1.25673 -1.67563,-2.09455 -3.40363,-2.09455 -1.57091,0 -3.35128,0.83782 -3.35128,2.09455 v 25.39636 c 0,5.91709 3.40365,8.48291 9.68728,8.48291 h 2.04218 c 1.93745,0 2.88,-1.41382 2.88,-2.88 0,-1.41382 -0.94255,-2.82763 -2.88,-2.82763 h -2.04218 c -2.19928,0 -2.93237,-0.7331 -2.93237,-2.77528 v -11.46763"
           inkscape:connector-curvature="0" />
        <path
           id="path11121"
           style="font-weight:bold;font-size:72px;fill:#000000;fill-opacity:1;stroke:none;stroke-width:0.727273"
           d="m 401.92952,452.89726 c -3.71781,0 -8.37818,1.62328 -8.37818,3.77019 0,1.51853 0.78546,3.35127 2.304,3.35127 1.25673,0 1.93746,-1.62327 5.96946,-1.62327 3.456,0 4.608,2.56581 4.608,4.81745 v 0.68073 h -2.14691 c -7.22618,0 -12.20073,1.67563 -12.20073,7.69745 0,4.76509 3.08946,6.96437 6.80727,6.96437 3.61309,0 6.07418,-1.98983 7.95928,-4.13673 v 1.51854 c 0,1.20436 1.30909,2.14691 3.03709,2.14691 1.88509,0 3.29891,-0.94255 3.29891,-2.14691 v -12.82909 c 0,-5.28872 -3.08947,-10.21091 -11.25819,-10.21091 m 4.50328,15.60437 c 0,2.56581 -2.67055,5.02691 -4.81746,5.02691 -1.57091,0 -2.77527,-0.89019 -2.77527,-2.82764 0,-2.93236 3.29892,-3.29891 6.80727,-3.29891 h 0.78546 v 1.09964"
           inkscape:connector-curvature="0" />
        <path
           id="path11123"
           style="font-weight:bold;font-size:72px;fill:#000000;fill-opacity:1;stroke:none;stroke-width:0.727273"
           d="m 436.78816,438.70672 c -1.88509,0 -3.40363,0.83782 -3.40363,2.09454 v 16.07564 c -1.152,-2.04218 -3.50837,-3.97964 -6.75491,-3.97964 -5.13164,0 -9.32073,4.81746 -9.32073,10.62982 v 4.29382 c 0,5.6029 4.29382,10.73455 9.16364,10.73455 3.35126,0 6.23127,-1.98983 7.27854,-4.13673 v 1.51854 c 0,1.04727 1.36146,2.14691 3.03709,2.14691 1.93745,0 3.35128,-1.09964 3.35128,-2.14691 v -35.136 c 0,-1.25672 -1.41383,-2.09454 -3.35128,-2.09454 m -12.72436,24.82036 c 0,-2.35636 2.04218,-4.71273 4.608,-4.71273 2.25163,0 4.71273,1.78037 4.71273,4.71273 v 5.23637 c 0,1.09962 -2.09456,3.8749 -4.76509,3.8749 -2.46109,0 -4.55564,-2.40873 -4.55564,-4.81745 v -4.29382"
           inkscape:connector-curvature="0" />
        <path
           style="font-weight:bold;font-size:72px;fill:#000000;fill-opacity:1;stroke:none;stroke-width:0.727273"
           d="m 448.54544,471.2769 c -2.04219,0 -3.56073,1.62327 -3.56073,3.56073 0,1.88508 1.51854,3.56072 3.56073,3.56072 1.93744,0 3.56072,-1.67564 3.56072,-3.56072 0,-1.93746 -1.62328,-3.56073 -3.56072,-3.56073"
           id="path7573" />
        <path
           style="font-weight:bold;font-size:72px;fill:#000000;fill-opacity:1;stroke:none;stroke-width:0.727273"
           d="m 451.79198,442.4769 c 0,-1.83273 -1.51855,-2.88 -3.29891,-2.88 -1.83272,0 -3.24654,1.04727 -3.24654,2.88 0,6.91199 0.68072,16.128 0.68072,23.04 0,1.41381 1.20437,1.98982 2.56582,1.98982 1.04728,0 2.56582,-0.57601 2.56582,-1.98982 0,-6.912 0.73309,-16.12801 0.73309,-23.04"
           id="path11125" />
      </g>
      <path
         style="fill:none;fill-opacity:1;stroke:#000000;stroke-width:1.42547;stroke-miterlimit:4;stroke-dasharray:none;stroke-opacity:1"
         clip-path="none"
         d="m 422.40451,495.86913 c 10.60606,2.16181 17.85981,5.62069 32.46456,6.28206 2.82338,4.89913 -3.1915,11.06813 -7.44437,16.37075 -2.64181,3.29194 -1.26381,6.63781 -2.22963,9.95219 -4.4885,3.16281 17.5715,5.42069 30.60138,4.87419 15.85862,0.45187 31.86675,0.74793 47.79587,1.12631 2.86031,2.534 -25.60225,1.01906 -11.53812,3.77018 19.62306,-0.64937 20.09768,5.625 11.93406,9.02269 -14.12475,-3.41712 -38.99769,0.42063 -52.48769,-3.0325 -10.45787,-2.30919 -21.16431,-8.24625 -39.41631,-5.03119 -18.01543,2.16788 -42.81731,2.564 -47.39543,8.81532 -9.56963,4.33237 -24.09775,7.91931 -34.97375,12.05468 -14.05744,3.32563 -34.2175,2.49232 -51.20369,3.47807 -17.12531,0.595 -28.63894,-4.64357 -42.30631,-4.62769 -16.95212,4.64494 -33.385,9.40462 -50.73481,13.96162 -18.97581,2.02507 -34.99419,8.993 -52.69787,8.94882 -7.10482,-1.87707 9.46312,-3.30307 13.61018,-5.00232 13.14213,-3.11887 26.28431,-6.23781 39.4265,-9.35675 8.92656,-4.32093 -4.90581,-8.03725 8.77638,-12.15537 11.13156,-4.93269 10.97243,-10.43613 18.57112,-15.5815 18.70369,0.35187 12.94869,-6.67156 19.51094,-9.59869 6.47031,-2.63943 9.10318,-4.72306 -4.82175,-5.14218 -6.329,-2.18769 -7.38263,-6.587 -23.28019,-3.9625 -21.4535,0.86062 -0.62875,-7.13057 -23.94881,-7.239 -23.26513,0.74681 -12.73881,-5.10719 -5.355,-8.36719 4.28006,-4.50781 47.01981,0.65237 33.37325,-5.567 -2.62725,-4.00538 10.59387,-7.25425 24.80537,-4.6685 21.15306,1.77725 44.2235,2.34631 64.54738,4.56306 14.379,-0.0188 30.75343,1.41344 43.50706,1.45844 3.62225,-3.65 7.24625,-7.3 10.86956,-10.95 7.33594,1.49062 14.67162,2.98125 22.00762,4.47187 1.46663,-3.16806 6.356,-5.33225 14.1315,-2.24168 4.63282,1.12462 9.26594,2.24918 13.89907,3.37381"
         id="path8"
         inkscape:connector-curvature="0" />
      <path
         style="fill:#020202;stroke:none;stroke-width:0.0729688"
         inkscape:connector-curvature="0"
         d="m 355.50139,409.55401 c 6.79481,0.91956 13.11925,4.85812 16.909,10.5755 0.49125,0.7755 0.17375,1.88575 -0.61063,2.338 -0.75625,0.58812 -1.97362,0.34625 -2.45375,-0.48125 -3.26306,-4.79038 -8.58787,-8.12625 -14.34231,-8.8895 -4.77037,-0.68275 -9.75462,0.39 -13.85012,2.92206 -0.36875,0.24625 -0.81,0.42062 -1.26125,0.34875 -1.14631,-0.10313 -1.93619,-1.48913 -1.46556,-2.533 0.15062,-0.37875 0.47125,-0.65306 0.81456,-0.85425 4.80031,-2.99131 10.66087,-4.21863 16.26012,-3.42644 z"
         id="path8691" />
      <path
         style="fill:#020202;stroke:none;stroke-width:0.0729688"
         inkscape:connector-curvature="0"
         d="m 353.96114,416.08369 c 5.24512,0.51625 10.17462,3.5215 13.03637,7.94594 0.43125,0.7665 0.13875,1.811 -0.61312,2.26119 -0.72188,0.58312 -1.89675,0.41937 -2.41444,-0.35438 -1.84394,-2.77725 -4.68069,-4.88956 -7.88812,-5.80981 -3.887,-1.15637 -8.24269,-0.50187 -11.64294,1.69556 -0.79319,0.55063 -1.98663,0.21938 -2.41825,-0.63368 -0.50563,-0.72669 -0.32938,-1.8255 0.40687,-2.32888 3.37619,-2.20844 7.523,-3.19481 11.53363,-2.77562 z"
         id="path8693" />
      <path
         style="fill:#020202;stroke:none;stroke-width:0.0729688"
         inkscape:connector-curvature="0"
         d="m 353.36289,422.71932 c 3.30356,0.35625 6.38987,2.29619 8.15119,5.1115 0.4825,0.771 0.17937,1.86069 -0.59438,2.31856 -0.73875,0.58813 -1.93081,0.38875 -2.43206,-0.4125 -0.99656,-1.56894 -2.58244,-2.76081 -4.38213,-3.24131 -2.03531,-0.58 -4.29681,-0.20125 -6.068,0.94319 -0.44562,0.33062 -1.03387,0.46687 -1.56881,0.2875 -1.255,-0.35563 -1.78312,-2.24132 -0.69206,-3.07813 2.17406,-1.5505 4.93962,-2.214 7.58637,-1.92856 z"
         id="path8695" />
      <path
         style="fill:#000000;fill-opacity:1;stroke:none;stroke-width:1.42547;stroke-miterlimit:4;stroke-dasharray:none;stroke-opacity:1"
         d="m 160.62927,578.23519 c -2.09581,0.405 -4.29494,0.80594 -6.08062,1.21394 a 3.2073252,3.2073252 0 0 0 2.88018,1.79993 3.2073252,3.2073252 0 0 0 3.20044,-3.01387 z"
         id="path4723" />
      <path
         style="fill:#000000;fill-opacity:1;stroke:none;stroke-width:1.42547;stroke-miterlimit:4;stroke-dasharray:none;stroke-opacity:1"
         d="m 169.83077,578.16981 a 3.2073252,3.2073252 0 0 0 -3.10569,2.411 c 1.90732,-0.3175 3.81019,-0.67475 5.71307,-1.0705 a 3.2073252,3.2073252 0 0 0 -2.60738,-1.3405 z"
         id="path4721" />
      <path
         style="fill:#000000;fill-opacity:1;stroke:none;stroke-width:1.42547;stroke-miterlimit:4;stroke-dasharray:none;stroke-opacity:1"
         d="m 180.43277,573.498 c -2.07838,0.49313 -4.15669,0.98656 -6.23506,1.47975 a 3.2073252,3.2073252 0 0 0 3.08062,2.31638 3.2073252,3.2073252 0 0 0 3.20731,-3.20732 3.2073252,3.2073252 0 0 0 -0.05,-0.58875 z"
         id="path4719" />
      <path
         style="fill:#000000;fill-opacity:1;stroke:none;stroke-width:1.42547;stroke-miterlimit:4;stroke-dasharray:none;stroke-opacity:1"
         d="m 195.04258,570.03031 c -1.67006,0.39625 -3.34006,0.79257 -5.01012,1.18888 a 3.2073252,3.2073252 0 0 0 2.06306,0.75175 3.2073252,3.2073252 0 0 0 2.94706,-1.94063 z"
         id="path4717" />
      <path
         style="fill:#000000;fill-opacity:1;stroke:none;stroke-width:1.42547;stroke-miterlimit:4;stroke-dasharray:none;stroke-opacity:1"
         d="m 210.26339,565.54931 a 3.2073252,3.2073252 0 0 0 -3.20731,3.20732 3.2073252,3.2073252 0 0 0 2.31781,3.082 c 1.0715,-0.28563 2.13613,-0.57188 3.20175,-0.85882 a 3.2073252,3.2073252 0 0 0 0.89513,-2.22318 3.2073252,3.2073252 0 0 0 -3.20738,-3.20732 z"
         id="path4715" />
      <path
         style="fill:#000000;fill-opacity:1;stroke:none;stroke-width:1.42547;stroke-miterlimit:4;stroke-dasharray:none;stroke-opacity:1"
         d="m 299.24714,563.01988 a 3.2073252,3.2073252 0 0 0 -1.70937,0.54562 c 0.32687,-0.006 0.642,-0.002 0.973,-0.0125 0.78668,-0.05 1.58662,-0.0825 2.386,-0.12125 a 3.2073252,3.2073252 0 0 0 -1.56882,-0.41062 3.2073252,3.2073252 0 0 0 -0.0806,0 z"
         id="path4713" />
      <path
         style="fill:#000000;fill-opacity:1;stroke:none;stroke-width:1.42547;stroke-miterlimit:4;stroke-dasharray:none;stroke-opacity:1"
         d="m 227.83127,563.01988 a 3.2073252,3.2073252 0 0 0 -3.12794,3.20737 3.2073252,3.2073252 0 0 0 0.305,1.36281 c 2.03019,-0.56187 4.0725,-1.12075 6.0945,-1.68437 a 3.2073252,3.2073252 0 0 0 -3.19206,-2.88581 3.2073252,3.2073252 0 0 0 -0.0794,0 z"
         id="path4711" />
      <path
         style="fill:#000000;fill-opacity:1;stroke:none;stroke-width:1.42547;stroke-miterlimit:4;stroke-dasharray:none;stroke-opacity:1"
         d="m 344.97108,558.77131 a 3.2073252,3.2073252 0 0 0 -3.16557,2.69363 c 2.0865,-0.26938 4.091,-0.59438 6.00257,-0.98413 a 3.2073252,3.2073252 0 0 0 -2.837,-1.7095 z"
         id="path4709" />
      <path
         style="fill:#000000;fill-opacity:1;stroke:none;stroke-width:1.42547;stroke-miterlimit:4;stroke-dasharray:none;stroke-opacity:1"
         d="m 273.55514,558.77131 a 3.2073252,3.2073252 0 0 0 -2.83281,1.70388 c 1.97894,0.35375 3.97694,0.73131 6.01375,1.10112 a 3.2073252,3.2073252 0 0 0 -3.18094,-2.805 z"
         id="path4707" />
      <path
         style="fill:#000000;fill-opacity:1;stroke:none;stroke-width:1.42547;stroke-miterlimit:4;stroke-dasharray:none;stroke-opacity:1"
         d="m 321.21539,557.34581 a 3.2073252,3.2073252 0 0 0 -3.20731,3.20732 3.2073252,3.2073252 0 0 0 0.99812,2.32481 c 1.52525,-0.0375 3.04225,-0.0875 4.55625,-0.1375 a 3.2073252,3.2073252 0 0 0 0.86032,-2.18688 3.2073252,3.2073252 0 0 0 -3.20738,-3.20731 z"
         id="path4705" />
      <path
         style="fill:#000000;fill-opacity:1;stroke:none;stroke-width:1.42547;stroke-miterlimit:4;stroke-dasharray:none;stroke-opacity:1"
         d="m 249.79952,557.34581 a 3.2073252,3.2073252 0 0 0 -3.20731,3.20732 3.2073252,3.2073252 0 0 0 0.15562,0.98981 c 2.05369,-0.57125 4.11294,-1.14169 6.17669,-1.71088 a 3.2073252,3.2073252 0 0 0 -3.12525,-2.48625 z"
         id="path4703" />
      <path
         style="fill:#000000;fill-opacity:1;stroke:none;stroke-width:1.42547;stroke-miterlimit:4;stroke-dasharray:none;stroke-opacity:1"
         d="m 358.83464,556.30456 a 3.2073252,3.2073252 0 0 0 -2.72981,1.52294 c 1.29425,-0.43125 2.60656,-0.85919 3.93818,-1.28487 a 3.2073252,3.2073252 0 0 0 -1.20837,-0.23813 z"
         id="path4701" />
      <path
         style="fill:#000000;fill-opacity:1;stroke:none;stroke-width:1.42547;stroke-miterlimit:4;stroke-dasharray:none;stroke-opacity:1"
         d="m 287.41739,556.30456 a 3.2073252,3.2073252 0 0 0 -3.20731,3.20732 3.2073252,3.2073252 0 0 0 3.20731,3.20737 3.2073252,3.2073252 0 0 0 3.20738,-3.20737 3.2073252,3.2073252 0 0 0 -3.20738,-3.20732 z"
         id="path4699" />
      <path
         style="fill:#000000;fill-opacity:1;stroke:none;stroke-width:1.42547;stroke-miterlimit:4;stroke-dasharray:none;stroke-opacity:1"
         d="m 216.00152,556.30456 a 3.2073252,3.2073252 0 0 0 -3.20738,3.20732 3.2073252,3.2073252 0 0 0 3.20738,3.20737 3.2073252,3.2073252 0 0 0 3.20731,-3.20737 3.2073252,3.2073252 0 0 0 -3.20731,-3.20732 z"
         id="path4697" />
      <path
         style="fill:#000000;fill-opacity:1;stroke:none;stroke-width:1.42547;stroke-miterlimit:4;stroke-dasharray:none;stroke-opacity:1"
         d="m 332.71945,555.10044 a 3.2073252,3.2073252 0 0 0 -3.20731,3.20731 3.2073252,3.2073252 0 0 0 3.20731,3.20731 3.2073252,3.2073252 0 0 0 3.20732,-3.20731 3.2073252,3.2073252 0 0 0 -3.20732,-3.20731 z"
         id="path4695" />
      <path
         style="fill:#000000;fill-opacity:1;stroke:none;stroke-width:1.42547;stroke-miterlimit:4;stroke-dasharray:none;stroke-opacity:1"
         d="m 261.3022,555.10044 a 3.2073252,3.2073252 0 0 0 -3.20731,3.20731 3.2073252,3.2073252 0 0 0 0.07,0.65988 c 2.07394,0.0719 4.1085,0.25062 6.12644,0.505 a 3.2073252,3.2073252 0 0 0 0.21875,-1.16519 3.2073252,3.2073252 0 0 0 -3.20731,-3.20731 z"
         id="path4693" />
      <path
         style="fill:#000000;fill-opacity:1;stroke:none;stroke-width:1.42547;stroke-miterlimit:4;stroke-dasharray:none;stroke-opacity:1"
         d="m 307.4242,554.15938 a 3.2073252,3.2073252 0 0 0 -3.20731,3.20731 3.2073252,3.2073252 0 0 0 3.20731,3.20731 3.2073252,3.2073252 0 0 0 3.20732,-3.20731 3.2073252,3.2073252 0 0 0 -3.20732,-3.20731 z"
         id="path4691" />
      <path
         style="fill:#000000;fill-opacity:1;stroke:none;stroke-width:1.42547;stroke-miterlimit:4;stroke-dasharray:none;stroke-opacity:1"
         d="m 236.00833,554.15938 a 3.2073252,3.2073252 0 0 0 -3.20737,3.20731 3.2073252,3.2073252 0 0 0 3.20737,3.20731 3.2073252,3.2073252 0 0 0 3.20731,-3.20731 3.2073252,3.2073252 0 0 0 -3.20731,-3.20731 z"
         id="path4689" />
      <path
         style="fill:#000000;fill-opacity:1;stroke:none;stroke-width:1.42547;stroke-miterlimit:4;stroke-dasharray:none;stroke-opacity:1"
         d="m 369.08308,549.56975 a 3.2073252,3.2073252 0 0 0 -3.20732,3.20731 3.2073252,3.2073252 0 0 0 0.52188,1.75257 c 1.985,-0.62438 3.95669,-1.25082 5.8885,-1.88338 a 3.2073252,3.2073252 0 0 0 -3.20319,-3.0765 z"
         id="path4687" />
      <path
         style="fill:#000000;fill-opacity:1;stroke:none;stroke-width:1.42547;stroke-miterlimit:4;stroke-dasharray:none;stroke-opacity:1"
         d="m 297.66714,549.56975 a 3.2073252,3.2073252 0 0 0 -3.20731,3.20731 3.2073252,3.2073252 0 0 0 3.20731,3.20738 3.2073252,3.2073252 0 0 0 3.20738,-3.20738 3.2073252,3.2073252 0 0 0 -3.20738,-3.20731 z"
         id="path4685" />
      <path
         style="fill:#000000;fill-opacity:1;stroke:none;stroke-width:1.42547;stroke-miterlimit:4;stroke-dasharray:none;stroke-opacity:1"
         d="m 226.24989,549.56975 a 3.2073252,3.2073252 0 0 0 -3.20731,3.20731 3.2073252,3.2073252 0 0 0 3.20731,3.20738 3.2073252,3.2073252 0 0 0 3.20738,-3.20738 3.2073252,3.2073252 0 0 0 -3.20738,-3.20731 z"
         id="path4683" />
      <path
         style="fill:#000000;fill-opacity:1;stroke:none;stroke-width:1.42547;stroke-miterlimit:4;stroke-dasharray:none;stroke-opacity:1"
         d="m 353.04508,548.76513 a 3.2073252,3.2073252 0 0 0 -3.128,3.20731 3.2073252,3.2073252 0 0 0 3.20731,3.20737 3.2073252,3.2073252 0 0 0 3.20731,-3.20737 3.2073252,3.2073252 0 0 0 -3.20731,-3.20731 3.2073252,3.2073252 0 0 0 -0.0794,0 z"
         id="path4681" />
      <path
         style="fill:#000000;fill-opacity:1;stroke:none;stroke-width:1.42547;stroke-miterlimit:4;stroke-dasharray:none;stroke-opacity:1"
         d="m 281.62914,548.76513 a 3.2073252,3.2073252 0 0 0 -3.12794,3.20731 3.2073252,3.2073252 0 0 0 3.20732,3.20737 3.2073252,3.2073252 0 0 0 3.20731,-3.20737 3.2073252,3.2073252 0 0 0 -3.20731,-3.20731 3.2073252,3.2073252 0 0 0 -0.0794,0 z"
         id="path4679" />
      <path
         style="fill:#000000;fill-opacity:1;stroke:none;stroke-width:1.42547;stroke-miterlimit:4;stroke-dasharray:none;stroke-opacity:1"
         d="m 316.61039,548.30156 a 3.2073252,3.2073252 0 0 0 -3.12794,3.20732 3.2073252,3.2073252 0 0 0 3.20732,3.20731 3.2073252,3.2073252 0 0 0 3.20731,-3.20731 3.2073252,3.2073252 0 0 0 -3.20731,-3.20732 3.2073252,3.2073252 0 0 0 -0.0794,0 z"
         id="path4677" />
      <path
         style="fill:#000000;fill-opacity:1;stroke:none;stroke-width:1.42547;stroke-miterlimit:4;stroke-dasharray:none;stroke-opacity:1"
         d="m 245.19321,548.30156 a 3.2073252,3.2073252 0 0 0 -3.12663,3.20732 3.2073252,3.2073252 0 0 0 3.20731,3.20731 3.2073252,3.2073252 0 0 0 3.20738,-3.20731 3.2073252,3.2073252 0 0 0 -3.20738,-3.20732 3.2073252,3.2073252 0 0 0 -0.0806,0 z"
         id="path4675" />
      <path
         style="fill:#000000;fill-opacity:1;stroke:none;stroke-width:1.42547;stroke-miterlimit:4;stroke-dasharray:none;stroke-opacity:1"
         d="m 343.40358,547.61663 a 3.2073252,3.2073252 0 0 0 -3.20731,3.20737 3.2073252,3.2073252 0 0 0 3.20731,3.20731 3.2073252,3.2073252 0 0 0 3.20731,-3.20731 3.2073252,3.2073252 0 0 0 -3.20731,-3.20737 z"
         id="path4673" />
      <path
         style="fill:#000000;fill-opacity:1;stroke:none;stroke-width:1.42547;stroke-miterlimit:4;stroke-dasharray:none;stroke-opacity:1"
         d="m 271.98633,547.61663 a 3.2073252,3.2073252 0 0 0 -3.20731,3.20737 3.2073252,3.2073252 0 0 0 3.20731,3.20731 3.2073252,3.2073252 0 0 0 3.20731,-3.20731 3.2073252,3.2073252 0 0 0 -3.20731,-3.20737 z"
         id="path4671" />
      <path
         style="fill:#000000;fill-opacity:1;stroke:none;stroke-width:1.42547;stroke-miterlimit:4;stroke-dasharray:none;stroke-opacity:1"
         d="m 326.43289,545.64269 a 3.2073252,3.2073252 0 0 0 -3.20731,3.20731 3.2073252,3.2073252 0 0 0 3.20731,3.20738 3.2073252,3.2073252 0 0 0 3.20731,-3.20738 3.2073252,3.2073252 0 0 0 -3.20731,-3.20731 z"
         id="path4669" />
      <path
         style="fill:#000000;fill-opacity:1;stroke:none;stroke-width:1.42547;stroke-miterlimit:4;stroke-dasharray:none;stroke-opacity:1"
         d="m 255.01702,545.64269 a 3.2073252,3.2073252 0 0 0 -3.20731,3.20731 3.2073252,3.2073252 0 0 0 3.20731,3.20738 3.2073252,3.2073252 0 0 0 3.20731,-3.20738 3.2073252,3.2073252 0 0 0 -3.20731,-3.20731 z"
         id="path4667" />
      <path
         style="fill:#000000;fill-opacity:1;stroke:none;stroke-width:1.42547;stroke-miterlimit:4;stroke-dasharray:none;stroke-opacity:1"
         d="m 502.89282,543.04794 a 3.2073252,3.2073252 0 0 0 -3.16693,2.702 c 2.12618,-0.0188 4.24593,-0.0312 6.32975,-0.025 a 3.2073252,3.2073252 0 0 0 -3.16282,-2.67975 z"
         id="path4665" />
      <path
         style="fill:#000000;fill-opacity:1;stroke:none;stroke-width:1.42547;stroke-miterlimit:4;stroke-dasharray:none;stroke-opacity:1"
         d="m 360.05964,543.04794 a 3.2073252,3.2073252 0 0 0 -3.20731,3.20731 3.2073252,3.2073252 0 0 0 3.20731,3.20731 3.2073252,3.2073252 0 0 0 3.20737,-3.20731 3.2073252,3.2073252 0 0 0 -3.20737,-3.20731 z"
         id="path4663" />
      <path
         style="fill:#000000;fill-opacity:1;stroke:none;stroke-width:1.42547;stroke-miterlimit:4;stroke-dasharray:none;stroke-opacity:1"
         d="m 288.64377,543.04794 a 3.2073252,3.2073252 0 0 0 -3.20732,3.20731 3.2073252,3.2073252 0 0 0 3.20732,3.20731 3.2073252,3.2073252 0 0 0 3.20731,-3.20731 3.2073252,3.2073252 0 0 0 -3.20731,-3.20731 z"
         id="path4661" />
      <path
         style="fill:#000000;fill-opacity:1;stroke:none;stroke-width:1.42547;stroke-miterlimit:4;stroke-dasharray:none;stroke-opacity:1"
         d="m 479.17339,541.50131 a 3.2073252,3.2073252 0 0 0 -3.20732,3.20732 3.2073252,3.2073252 0 0 0 0.0188,0.37 c 1.95432,0.26437 4.06438,0.43062 6.26157,0.54125 a 3.2073252,3.2073252 0 0 0 0.1325,-0.91175 3.2073252,3.2073252 0 0 0 -3.20732,-3.20738 z"
         id="path4659" />
      <path
         style="fill:#000000;fill-opacity:1;stroke:none;stroke-width:1.42547;stroke-miterlimit:4;stroke-dasharray:none;stroke-opacity:1"
         d="m 407.75608,541.50131 a 3.2073252,3.2073252 0 0 0 -1.05788,0.18125 c 0.48313,-0.0562 0.98019,-0.1025 1.47,-0.15437 a 3.2073252,3.2073252 0 0 0 -0.41187,-0.025 z"
         id="path4657" />
      <path
         style="fill:#000000;fill-opacity:1;stroke:none;stroke-width:1.42547;stroke-miterlimit:4;stroke-dasharray:none;stroke-opacity:1"
         d="m 336.34027,541.50131 a 3.2073252,3.2073252 0 0 0 -3.20738,3.20732 3.2073252,3.2073252 0 0 0 3.20738,3.20737 3.2073252,3.2073252 0 0 0 3.20731,-3.20737 3.2073252,3.2073252 0 0 0 -3.20731,-3.20732 z"
         id="path4655" />
      <path
         style="fill:#000000;fill-opacity:1;stroke:none;stroke-width:1.42547;stroke-miterlimit:4;stroke-dasharray:none;stroke-opacity:1"
         d="m 264.92289,541.50131 a 3.2073252,3.2073252 0 0 0 -3.20731,3.20732 3.2073252,3.2073252 0 0 0 3.20731,3.20737 3.2073252,3.2073252 0 0 0 3.20738,-3.20737 3.2073252,3.2073252 0 0 0 -3.20738,-3.20732 z"
         id="path4653" />
      <path
         style="fill:#000000;fill-opacity:1;stroke:none;stroke-width:1.42547;stroke-miterlimit:4;stroke-dasharray:none;stroke-opacity:1"
         d="m 231.36296,541.08369 c -1.68213,1.36712 -2.95619,2.75137 -4.14,4.14 a 3.2073252,3.2073252 0 0 0 1.14431,0.21125 3.2073252,3.2073252 0 0 0 3.20731,-3.20731 3.2073252,3.2073252 0 0 0 -0.21125,-1.14425 z"
         id="path4651" />
      <path
         style="fill:#000000;fill-opacity:1;stroke:none;stroke-width:1.42547;stroke-miterlimit:4;stroke-dasharray:none;stroke-opacity:1"
         d="m 524.13995,540.71763 a 3.2073252,3.2073252 0 0 0 -3.20732,3.20731 3.2073252,3.2073252 0 0 0 3.20732,3.20731 3.2073252,3.2073252 0 0 0 0.0794,-10e-4 3.2073252,3.2073252 0 0 0 0.0625,10e-4 3.2073252,3.2073252 0 0 0 0.0125,0 c 1.08038,-0.4725 1.99956,-0.99431 2.72844,-1.54381 a 3.2073252,3.2073252 0 0 0 0.46625,-1.6635 3.2073252,3.2073252 0 0 0 -3.20731,-3.20731 3.2073252,3.2073252 0 0 0 -0.0794,10e-4 3.2073252,3.2073252 0 0 0 -0.0625,-10e-4 z"
         id="path4649" />
      <path
         style="fill:#000000;fill-opacity:1;stroke:none;stroke-width:1.42547;stroke-miterlimit:4;stroke-dasharray:none;stroke-opacity:1"
         d="m 381.30683,540.71763 a 3.2073252,3.2073252 0 0 0 -3.20732,3.20731 3.2073252,3.2073252 0 0 0 3.20732,3.20731 3.2073252,3.2073252 0 0 0 0.0794,-10e-4 3.2073252,3.2073252 0 0 0 0.0625,10e-4 3.2073252,3.2073252 0 0 0 3.20731,-3.20731 3.2073252,3.2073252 0 0 0 -3.20731,-3.20731 3.2073252,3.2073252 0 0 0 -0.0794,10e-4 3.2073252,3.2073252 0 0 0 -0.0625,-10e-4 z"
         id="path4647" />
      <path
         style="fill:#000000;fill-opacity:1;stroke:none;stroke-width:1.42547;stroke-miterlimit:4;stroke-dasharray:none;stroke-opacity:1"
         d="m 309.89089,540.71763 a 3.2073252,3.2073252 0 0 0 -3.20731,3.20731 3.2073252,3.2073252 0 0 0 3.20731,3.20731 3.2073252,3.2073252 0 0 0 0.0794,-10e-4 3.2073252,3.2073252 0 0 0 0.0625,10e-4 3.2073252,3.2073252 0 0 0 3.20731,-3.20731 3.2073252,3.2073252 0 0 0 -3.20731,-3.20731 3.2073252,3.2073252 0 0 0 -0.0794,10e-4 3.2073252,3.2073252 0 0 0 -0.0625,-10e-4 z"
         id="path4645" />
      <path
         style="fill:#000000;fill-opacity:1;stroke:none;stroke-width:1.42547;stroke-miterlimit:4;stroke-dasharray:none;stroke-opacity:1"
         d="m 238.47371,540.71763 a 3.2073252,3.2073252 0 0 0 -3.20738,3.20731 3.2073252,3.2073252 0 0 0 3.20738,3.20731 3.2073252,3.2073252 0 0 0 0.0794,-10e-4 3.2073252,3.2073252 0 0 0 0.0644,10e-4 3.2073252,3.2073252 0 0 0 3.20731,-3.20731 3.2073252,3.2073252 0 0 0 -3.20731,-3.20731 3.2073252,3.2073252 0 0 0 -0.0806,10e-4 3.2073252,3.2073252 0 0 0 -0.0625,-10e-4 z"
         id="path4643" />
      <path
         style="fill:#000000;fill-opacity:1;stroke:none;stroke-width:1.42547;stroke-miterlimit:4;stroke-dasharray:none;stroke-opacity:1"
         d="m 514.03357,539.02063 a 3.2073252,3.2073252 0 0 0 -3.20731,3.20737 3.2073252,3.2073252 0 0 0 3.20731,3.20731 3.2073252,3.2073252 0 0 0 3.20731,-3.20731 3.2073252,3.2073252 0 0 0 -3.20731,-3.20737 z"
         id="path4641" />
      <path
         style="fill:#000000;fill-opacity:1;stroke:none;stroke-width:1.42547;stroke-miterlimit:4;stroke-dasharray:none;stroke-opacity:1"
         d="m 371.20039,539.02063 a 3.2073252,3.2073252 0 0 0 -3.20731,3.20737 3.2073252,3.2073252 0 0 0 3.20731,3.20731 3.2073252,3.2073252 0 0 0 3.20737,-3.20731 3.2073252,3.2073252 0 0 0 -3.20737,-3.20737 z"
         id="path4639" />
      <path
         style="fill:#000000;fill-opacity:1;stroke:none;stroke-width:1.42547;stroke-miterlimit:4;stroke-dasharray:none;stroke-opacity:1"
         d="m 299.78314,539.02063 a 3.2073252,3.2073252 0 0 0 -3.20731,3.20737 3.2073252,3.2073252 0 0 0 3.20731,3.20731 3.2073252,3.2073252 0 0 0 3.20731,-3.20731 3.2073252,3.2073252 0 0 0 -3.20731,-3.20737 z"
         id="path4637" />
      <path
         style="fill:#000000;fill-opacity:1;stroke:none;stroke-width:1.42547;stroke-miterlimit:4;stroke-dasharray:none;stroke-opacity:1"
         d="m 461.01251,537.10375 a 3.2073252,3.2073252 0 0 0 -3.20737,3.20738 3.2073252,3.2073252 0 0 0 0.001,0.0875 c 2.04332,0.53437 3.99413,1.1115 5.8815,1.68025 a 3.2073252,3.2073252 0 0 0 0.53188,-1.76794 3.2073252,3.2073252 0 0 0 -3.20731,-3.20731 z"
         id="path4635" />
      <path
         style="fill:#000000;fill-opacity:1;stroke:none;stroke-width:1.42547;stroke-miterlimit:4;stroke-dasharray:none;stroke-opacity:1"
         d="m 389.5952,537.10375 a 3.2073252,3.2073252 0 0 0 -3.20731,3.20738 3.2073252,3.2073252 0 0 0 3.20731,3.20731 3.2073252,3.2073252 0 0 0 3.20731,-3.20731 3.2073252,3.2073252 0 0 0 -3.20731,-3.20738 z"
         id="path4633" />
      <path
         style="fill:#000000;fill-opacity:1;stroke:none;stroke-width:1.42547;stroke-miterlimit:4;stroke-dasharray:none;stroke-opacity:1"
         d="m 318.17933,537.10375 a 3.2073252,3.2073252 0 0 0 -3.20731,3.20738 3.2073252,3.2073252 0 0 0 3.20731,3.20731 3.2073252,3.2073252 0 0 0 3.20731,-3.20731 3.2073252,3.2073252 0 0 0 -3.20731,-3.20738 z"
         id="path4631" />
      <path
         style="fill:#000000;fill-opacity:1;stroke:none;stroke-width:1.42547;stroke-miterlimit:4;stroke-dasharray:none;stroke-opacity:1"
         d="m 246.76346,537.10375 a 3.2073252,3.2073252 0 0 0 -0.25188,0.006 c -0.60687,0.50188 -1.37006,0.95919 -2.36925,1.34756 a 3.2073252,3.2073252 0 0 0 -0.58625,1.84863 3.2073252,3.2073252 0 0 0 3.20731,3.20731 3.2073252,3.2073252 0 0 0 3.20732,-3.20731 3.2073252,3.2073252 0 0 0 -3.20732,-3.20731 z"
         id="path4629" />
      <path
         style="fill:#000000;fill-opacity:1;stroke:none;stroke-width:1.42547;stroke-miterlimit:4;stroke-dasharray:none;stroke-opacity:1"
         d="m 489.19351,536.02075 a 3.2073252,3.2073252 0 0 0 -3.20731,3.20731 3.2073252,3.2073252 0 0 0 3.20731,3.20732 3.2073252,3.2073252 0 0 0 3.20731,-3.20732 3.2073252,3.2073252 0 0 0 -3.20731,-3.20731 z"
         id="path4627" />
      <path
         style="fill:#000000;fill-opacity:1;stroke:none;stroke-width:1.42547;stroke-miterlimit:4;stroke-dasharray:none;stroke-opacity:1"
         d="m 417.77758,536.02075 a 3.2073252,3.2073252 0 0 0 -3.20732,3.20731 3.2073252,3.2073252 0 0 0 0.45125,1.63988 c 1.9305,-0.17563 3.83769,-0.35563 5.76588,-0.52875 a 3.2073252,3.2073252 0 0 0 0.1975,-1.11088 3.2073252,3.2073252 0 0 0 -3.20731,-3.20731 z"
         id="path4625" />
      <path
         style="fill:#000000;fill-opacity:1;stroke:none;stroke-width:1.42547;stroke-miterlimit:4;stroke-dasharray:none;stroke-opacity:1"
         d="m 346.36176,536.02075 a 3.2073252,3.2073252 0 0 0 -3.20737,3.20731 3.2073252,3.2073252 0 0 0 3.20737,3.20732 3.2073252,3.2073252 0 0 0 3.20732,-3.20732 3.2073252,3.2073252 0 0 0 -3.20732,-3.20731 z"
         id="path4623" />
      <path
         style="fill:#000000;fill-opacity:1;stroke:none;stroke-width:1.42547;stroke-miterlimit:4;stroke-dasharray:none;stroke-opacity:1"
         d="m 274.94445,536.02075 a 3.2073252,3.2073252 0 0 0 -3.20731,3.20731 3.2073252,3.2073252 0 0 0 3.20731,3.20732 3.2073252,3.2073252 0 0 0 3.20732,-3.20732 3.2073252,3.2073252 0 0 0 -3.20732,-3.20731 z"
         id="path4621" />
      <path
         style="fill:#000000;fill-opacity:1;stroke:none;stroke-width:1.42547;stroke-miterlimit:4;stroke-dasharray:none;stroke-opacity:1"
         d="m 520.99951,534.41569 a 3.2073252,3.2073252 0 0 0 0.48125,0.0375 3.2073252,3.2073252 0 0 0 0.33812,-0.0187 c -0.27312,-0.005 -0.54687,-0.0125 -0.81987,-0.0187 z"
         id="path4619" />
      <path
         style="fill:#000000;fill-opacity:1;stroke:none;stroke-width:1.42547;stroke-miterlimit:4;stroke-dasharray:none;stroke-opacity:1"
         d="m 502.67151,534.00644 a 3.2073252,3.2073252 0 0 0 -0.5625,1.81525 3.2073252,3.2073252 0 0 0 3.20731,3.20731 3.2073252,3.2073252 0 0 0 2.90807,-1.857 c -0.1425,-0.1275 -0.0937,-0.2375 0.1325,-0.33 a 3.2073252,3.2073252 0 0 0 0.16687,-1.02037 3.2073252,3.2073252 0 0 0 -0.48562,-1.6955 c -1.78944,-0.0375 -3.57713,-0.0806 -5.36638,-0.12 z"
         id="path4617" />
      <path
         style="fill:#000000;fill-opacity:1;stroke:none;stroke-width:1.42547;stroke-miterlimit:4;stroke-dasharray:none;stroke-opacity:1"
         d="m 494.59751,533.82132 a 3.2073252,3.2073252 0 0 0 1.96556,0.67375 3.2073252,3.2073252 0 0 0 1.84732,-0.58438 c -1.272,-0.025 -2.54157,-0.0625 -3.81288,-0.0894 z"
         id="path4615" />
      <path
         style="fill:#000000;fill-opacity:1;stroke:none;stroke-width:1.42547;stroke-miterlimit:4;stroke-dasharray:none;stroke-opacity:1"
         d="m 474.01857,533.57632 a 3.2073252,3.2073252 0 0 0 -3.128,3.20731 3.2073252,3.2073252 0 0 0 3.20732,3.20731 3.2073252,3.2073252 0 0 0 3.20737,-3.20731 3.2073252,3.2073252 0 0 0 -3.20737,-3.20731 3.2073252,3.2073252 0 0 0 -0.0794,0 z"
         id="path4613" />
      <path
         style="fill:#000000;fill-opacity:1;stroke:none;stroke-width:1.42547;stroke-miterlimit:4;stroke-dasharray:none;stroke-opacity:1"
         d="m 402.6027,533.57632 a 3.2073252,3.2073252 0 0 0 -3.128,3.20731 3.2073252,3.2073252 0 0 0 3.20731,3.20731 3.2073252,3.2073252 0 0 0 3.20738,-3.20731 3.2073252,3.2073252 0 0 0 -3.20738,-3.20731 3.2073252,3.2073252 0 0 0 -0.0794,0 z"
         id="path4611" />
      <path
         style="fill:#000000;fill-opacity:1;stroke:none;stroke-width:1.42547;stroke-miterlimit:4;stroke-dasharray:none;stroke-opacity:1"
         d="m 331.18539,533.57632 a 3.2073252,3.2073252 0 0 0 -3.12794,3.20731 3.2073252,3.2073252 0 0 0 3.20732,3.20731 3.2073252,3.2073252 0 0 0 3.20731,-3.20731 3.2073252,3.2073252 0 0 0 -3.20731,-3.20731 3.2073252,3.2073252 0 0 0 -0.0794,0 z"
         id="path4609" />
      <path
         style="fill:#000000;fill-opacity:1;stroke:none;stroke-width:1.42547;stroke-miterlimit:4;stroke-dasharray:none;stroke-opacity:1"
         d="m 259.76952,533.57632 a 3.2073252,3.2073252 0 0 0 -3.128,3.20731 3.2073252,3.2073252 0 0 0 3.20737,3.20731 3.2073252,3.2073252 0 0 0 3.20731,-3.20731 3.2073252,3.2073252 0 0 0 -3.20731,-3.20731 3.2073252,3.2073252 0 0 0 -0.0794,0 z"
         id="path4607" />
      <path
         style="fill:#000000;fill-opacity:1;stroke:none;stroke-width:1.42547;stroke-miterlimit:4;stroke-dasharray:none;stroke-opacity:1"
         d="m 461.53589,533.05982 a 3.2073252,3.2073252 0 0 0 2.83287,1.70668 3.2073252,3.2073252 0 0 0 2.66444,-1.42131 c -1.83,-0.0625 -3.677,-0.1575 -5.49731,-0.28562 z"
         id="path4605" />
      <path
         style="fill:#000000;fill-opacity:1;stroke:none;stroke-width:1.42547;stroke-miterlimit:4;stroke-dasharray:none;stroke-opacity:1"
         d="m 433.81982,532.61438 a 3.2073252,3.2073252 0 0 0 -3.12793,3.20731 3.2073252,3.2073252 0 0 0 2.70887,3.16831 c 0.62669,-0.0975 1.24538,-0.18687 1.85431,-0.26312 a 3.2073252,3.2073252 0 0 0 1.85144,-2.90519 3.2073252,3.2073252 0 0 0 -3.20731,-3.20731 3.2073252,3.2073252 0 0 0 -0.0794,0 z"
         id="path4603" />
      <path
         style="fill:#000000;fill-opacity:1;stroke:none;stroke-width:1.42547;stroke-miterlimit:4;stroke-dasharray:none;stroke-opacity:1"
         d="m 362.40389,532.61438 a 3.2073252,3.2073252 0 0 0 -3.128,3.20731 3.2073252,3.2073252 0 0 0 3.20737,3.20731 3.2073252,3.2073252 0 0 0 3.20732,-3.20731 3.2073252,3.2073252 0 0 0 -3.20732,-3.20731 3.2073252,3.2073252 0 0 0 -0.0794,0 z"
         id="path4601" />
      <path
         style="fill:#000000;fill-opacity:1;stroke:none;stroke-width:1.42547;stroke-miterlimit:4;stroke-dasharray:none;stroke-opacity:1"
         d="m 290.98664,532.61438 a 3.2073252,3.2073252 0 0 0 -3.12656,3.20731 3.2073252,3.2073252 0 0 0 3.20731,3.20731 3.2073252,3.2073252 0 0 0 3.20738,-3.20731 3.2073252,3.2073252 0 0 0 -3.20738,-3.20731 3.2073252,3.2073252 0 0 0 -0.0806,0 z"
         id="path4599" />
      <path
         style="fill:#000000;fill-opacity:1;stroke:none;stroke-width:1.42547;stroke-miterlimit:4;stroke-dasharray:none;stroke-opacity:1"
         d="m 446.87882,530.87282 a 3.2073252,3.2073252 0 0 0 -0.0188,0.37125 3.2073252,3.2073252 0 0 0 3.20732,3.20731 3.2073252,3.2073252 0 0 0 3.06675,-2.269 c -2.54894,-0.37063 -4.74294,-0.80969 -6.25313,-1.31 z"
         id="path4597" />
      <path
         style="fill:#000000;fill-opacity:1;stroke:none;stroke-width:1.42547;stroke-miterlimit:4;stroke-dasharray:none;stroke-opacity:1"
         d="m 252.93727,530.02369 c -0.0963,0.0375 -0.17125,0.0769 -0.27,0.11688 -2.38244,1.06275 -3.14175,2.66475 -4.037,4.25831 a 3.2073252,3.2073252 0 0 0 1.4895,0.3675 3.2073252,3.2073252 0 0 0 3.20731,-3.20731 3.2073252,3.2073252 0 0 0 -0.38937,-1.5355 z"
         id="path4595" />
      <path
         style="fill:#000000;fill-opacity:1;stroke:none;stroke-width:1.42547;stroke-miterlimit:4;stroke-dasharray:none;stroke-opacity:1"
         d="m 392.87351,528.35182 a 3.2073252,3.2073252 0 0 0 -3.128,3.20737 3.2073252,3.2073252 0 0 0 3.20738,3.20731 3.2073252,3.2073252 0 0 0 3.20731,-3.20731 3.2073252,3.2073252 0 0 0 -3.20731,-3.20737 3.2073252,3.2073252 0 0 0 -0.0794,0 z"
         id="path4593" />
      <path
         style="fill:#000000;fill-opacity:1;stroke:none;stroke-width:1.42547;stroke-miterlimit:4;stroke-dasharray:none;stroke-opacity:1"
         d="m 321.45627,528.35182 a 3.2073252,3.2073252 0 0 0 -3.12663,3.20737 3.2073252,3.2073252 0 0 0 3.20731,3.20731 3.2073252,3.2073252 0 0 0 3.20738,-3.20731 3.2073252,3.2073252 0 0 0 -3.20738,-3.20737 3.2073252,3.2073252 0 0 0 -0.0806,0 z"
         id="path4591" />
      <path
         style="fill:#000000;fill-opacity:1;stroke:none;stroke-width:1.42547;stroke-miterlimit:4;stroke-dasharray:none;stroke-opacity:1"
         d="m 425.14726,528.08038 a 3.2073252,3.2073252 0 0 0 -3.20737,3.20731 3.2073252,3.2073252 0 0 0 3.20737,3.20738 3.2073252,3.2073252 0 0 0 3.20731,-3.20738 3.2073252,3.2073252 0 0 0 -3.20731,-3.20731 z"
         id="path4589" />
      <path
         style="fill:#000000;fill-opacity:1;stroke:none;stroke-width:1.42547;stroke-miterlimit:4;stroke-dasharray:none;stroke-opacity:1"
         d="m 353.73139,528.08038 a 3.2073252,3.2073252 0 0 0 -3.20738,3.20731 3.2073252,3.2073252 0 0 0 3.20738,3.20738 3.2073252,3.2073252 0 0 0 3.20731,-3.20738 3.2073252,3.2073252 0 0 0 -3.20731,-3.20731 z"
         id="path4587" />
      <path
         style="fill:#000000;fill-opacity:1;stroke:none;stroke-width:1.42547;stroke-miterlimit:4;stroke-dasharray:none;stroke-opacity:1"
         d="m 282.31408,528.08038 a 3.2073252,3.2073252 0 0 0 -3.20731,3.20731 3.2073252,3.2073252 0 0 0 3.20731,3.20738 3.2073252,3.2073252 0 0 0 3.20731,-3.20738 3.2073252,3.2073252 0 0 0 -3.20731,-3.20731 z"
         id="path4585" />
      <path
         style="fill:#000000;fill-opacity:1;stroke:none;stroke-width:1.42547;stroke-miterlimit:4;stroke-dasharray:none;stroke-opacity:1"
         d="m 378.64801,528.03725 a 3.2073252,3.2073252 0 0 0 -3.20731,3.20732 3.2073252,3.2073252 0 0 0 3.20731,3.20731 3.2073252,3.2073252 0 0 0 3.20732,-3.20731 3.2073252,3.2073252 0 0 0 -3.20732,-3.20732 z"
         id="path4583" />
      <path
         style="fill:#000000;fill-opacity:1;stroke:none;stroke-width:1.42547;stroke-miterlimit:4;stroke-dasharray:none;stroke-opacity:1"
         d="m 307.23208,528.03725 a 3.2073252,3.2073252 0 0 0 -3.20731,3.20732 3.2073252,3.2073252 0 0 0 3.20731,3.20731 3.2073252,3.2073252 0 0 0 3.20731,-3.20731 3.2073252,3.2073252 0 0 0 -3.20731,-3.20732 z"
         id="path4581" />
      <path
         style="fill:#000000;fill-opacity:1;stroke:none;stroke-width:1.42547;stroke-miterlimit:4;stroke-dasharray:none;stroke-opacity:1"
         d="m 414.27658,525.48 a 3.2073252,3.2073252 0 0 0 -3.128,3.20738 3.2073252,3.2073252 0 0 0 3.20731,3.20731 3.2073252,3.2073252 0 0 0 3.20737,-3.20731 3.2073252,3.2073252 0 0 0 -3.20737,-3.20738 3.2073252,3.2073252 0 0 0 -0.0788,0 z"
         id="path4579" />
      <path
         style="fill:#000000;fill-opacity:1;stroke:none;stroke-width:1.42547;stroke-miterlimit:4;stroke-dasharray:none;stroke-opacity:1"
         d="m 344.71701,526.87832 a 3.2073252,3.2073252 0 0 0 -3.12793,3.20731 3.2073252,3.2073252 0 0 0 3.20731,3.20731 3.2073252,3.2073252 0 0 0 3.20731,-3.20731 3.2073252,3.2073252 0 0 0 -3.20731,-3.20731 3.2073252,3.2073252 0 0 0 -0.0794,0 z"
         id="path4577" />
      <path
         style="fill:#000000;fill-opacity:1;stroke:none;stroke-width:1.42547;stroke-miterlimit:4;stroke-dasharray:none;stroke-opacity:1"
         d="m 271.44339,525.48 a 3.2073252,3.2073252 0 0 0 -3.12656,3.20738 3.2073252,3.2073252 0 0 0 3.20731,3.20731 3.2073252,3.2073252 0 0 0 3.20731,-3.20731 3.2073252,3.2073252 0 0 0 -3.20731,-3.20738 3.2073252,3.2073252 0 0 0 -0.0806,0 z"
         id="path4575" />
      <path
         style="fill:#000000;fill-opacity:1;stroke:none;stroke-width:1.42547;stroke-miterlimit:4;stroke-dasharray:none;stroke-opacity:1"
         d="m 439.40901,524.2105 a 3.2073252,3.2073252 0 0 0 -3.20737,3.20732 3.2073252,3.2073252 0 0 0 3.20737,3.20731 3.2073252,3.2073252 0 0 0 3.20731,-3.20731 3.2073252,3.2073252 0 0 0 -3.20731,-3.20732 z"
         id="path4573" />
      <path
         style="fill:#000000;fill-opacity:1;stroke:none;stroke-width:1.42547;stroke-miterlimit:4;stroke-dasharray:none;stroke-opacity:1"
         d="m 367.99308,524.2105 a 3.2073252,3.2073252 0 0 0 -3.20732,3.20732 3.2073252,3.2073252 0 0 0 3.20732,3.20731 3.2073252,3.2073252 0 0 0 3.20731,-3.20731 3.2073252,3.2073252 0 0 0 -3.20731,-3.20732 z"
         id="path4571" />
      <path
         style="display:inline;fill:#000000;fill-opacity:1;stroke:none;stroke-width:1.42547;stroke-miterlimit:4;stroke-dasharray:none;stroke-opacity:1"
         d="m 296.57583,524.2105 a 3.2073252,3.2073252 0 0 0 -3.20731,3.20732 3.2073252,3.2073252 0 0 0 3.20731,3.20731 3.2073252,3.2073252 0 0 0 3.20731,-3.20731 3.2073252,3.2073252 0 0 0 -3.20731,-3.20732 z"
         id="path4569" />
      <path
         style="fill:#000000;fill-opacity:1;stroke:none;stroke-width:1.42547;stroke-miterlimit:4;stroke-dasharray:none;stroke-opacity:1"
         d="m 405.38964,523.44763 a 3.2073252,3.2073252 0 0 0 -3.20738,3.20731 3.2073252,3.2073252 0 0 0 3.20738,3.20731 3.2073252,3.2073252 0 0 0 3.20731,-3.20731 3.2073252,3.2073252 0 0 0 -3.20731,-3.20731 z"
         id="path4567" />
      <path
         style="fill:#000000;fill-opacity:1;stroke:none;stroke-width:1.42547;stroke-miterlimit:4;stroke-dasharray:none;stroke-opacity:1"
         d="m 262.55783,523.44763 a 3.2073252,3.2073252 0 0 0 -3.20731,3.20731 3.2073252,3.2073252 0 0 0 3.20731,3.20731 3.2073252,3.2073252 0 0 0 3.20731,-3.20731 3.2073252,3.2073252 0 0 0 -3.20731,-3.20731 z"
         id="path4563" />
      <path
         style="fill:#000000;fill-opacity:1;stroke:none;stroke-width:1.42547;stroke-miterlimit:4;stroke-dasharray:none;stroke-opacity:1"
         d="m 386.19576,519.29925 a 3.2073252,3.2073252 0 0 0 -3.20737,3.20732 3.2073252,3.2073252 0 0 0 3.20737,3.20737 3.2073252,3.2073252 0 0 0 0.0794,0 3.2073252,3.2073252 0 0 0 0.0644,0 3.2073252,3.2073252 0 0 0 3.20738,-3.20737 3.2073252,3.2073252 0 0 0 -3.20738,-3.20732 3.2073252,3.2073252 0 0 0 -0.0794,10e-4 3.2073252,3.2073252 0 0 1 -10e-4,0 3.2073252,3.2073252 0 0 0 -0.0625,-10e-4 z"
         id="path4561" />
      <path
         style="fill:#000000;fill-opacity:1;stroke:none;stroke-width:1.42547;stroke-miterlimit:4;stroke-dasharray:none;stroke-opacity:1"
         d="m 314.77989,519.29925 a 3.2073252,3.2073252 0 0 0 -3.20731,3.20732 3.2073252,3.2073252 0 0 0 3.20731,3.20737 3.2073252,3.2073252 0 0 0 0.0794,0 3.2073252,3.2073252 0 0 0 0.0625,0 3.2073252,3.2073252 0 0 0 3.20731,-3.20737 3.2073252,3.2073252 0 0 0 -3.20731,-3.20732 3.2073252,3.2073252 0 0 0 -0.0794,10e-4 3.2073252,3.2073252 0 0 0 -0.0625,-10e-4 z"
         id="path4559" />
      <path
         style="fill:#000000;fill-opacity:1;stroke:none;stroke-width:1.42547;stroke-miterlimit:4;stroke-dasharray:none;stroke-opacity:1"
         d="m 243.36258,519.29925 a 3.2073252,3.2073252 0 0 0 -3.018,2.12432 c 2.15913,0.83118 3.76619,1.94493 5.81331,2.88575 a 3.2073252,3.2073252 0 0 0 0.55563,-1.80275 3.2073252,3.2073252 0 0 0 -3.20731,-3.20732 3.2073252,3.2073252 0 0 0 -0.0794,10e-4 3.2073252,3.2073252 0 0 0 -0.0637,-10e-4 z"
         id="path4557" />
      <path
         style="fill:#000000;fill-opacity:1;stroke:none;stroke-width:1.42547;stroke-miterlimit:4;stroke-dasharray:none;stroke-opacity:1"
         d="m 423.16633,518.33038 a 3.2073252,3.2073252 0 0 0 -3.20732,3.20731 3.2073252,3.2073252 0 0 0 3.20732,3.20731 3.2073252,3.2073252 0 0 0 3.20731,-3.20731 3.2073252,3.2073252 0 0 0 -3.20731,-3.20731 z"
         id="path4555" />
      <path
         style="fill:#000000;fill-opacity:1;stroke:none;stroke-width:1.42547;stroke-miterlimit:4;stroke-dasharray:none;stroke-opacity:1"
         d="m 350.22114,515.18182 a 3.2073252,3.2073252 0 0 0 -3.20731,3.20731 3.2073252,3.2073252 0 0 0 3.20731,3.20737 3.2073252,3.2073252 0 0 0 3.20737,-3.20737 3.2073252,3.2073252 0 0 0 -3.20737,-3.20731 z"
         id="path4553" />
      <path
         style="fill:#000000;fill-opacity:1;stroke:none;stroke-width:1.42547;stroke-miterlimit:4;stroke-dasharray:none;stroke-opacity:1"
         d="m 280.33314,518.33038 a 3.2073252,3.2073252 0 0 0 -3.20731,3.20731 3.2073252,3.2073252 0 0 0 3.20731,3.20731 3.2073252,3.2073252 0 0 0 3.20738,-3.20731 3.2073252,3.2073252 0 0 0 -3.20738,-3.20731 z"
         id="path4551" />
      <path
         style="fill:#000000;fill-opacity:1;stroke:none;stroke-width:1.42547;stroke-miterlimit:4;stroke-dasharray:none;stroke-opacity:1"
         d="m 396.81589,518.21625 a 3.2073252,3.2073252 0 0 0 -3.20738,3.20732 3.2073252,3.2073252 0 0 0 3.20738,3.20731 3.2073252,3.2073252 0 0 0 3.20731,-3.20731 3.2073252,3.2073252 0 0 0 -3.20731,-3.20732 z"
         id="path4549" />
      <path
         style="fill:#000000;fill-opacity:1;stroke:none;stroke-width:1.42547;stroke-miterlimit:4;stroke-dasharray:none;stroke-opacity:1"
         d="m 325.39995,518.21625 a 3.2073252,3.2073252 0 0 0 -3.20731,3.20732 3.2073252,3.2073252 0 0 0 3.20731,3.20731 3.2073252,3.2073252 0 0 0 3.20738,-3.20731 3.2073252,3.2073252 0 0 0 -3.20738,-3.20732 z"
         id="path4547" />
      <path
         style="fill:#000000;fill-opacity:1;stroke:none;stroke-width:1.42547;stroke-miterlimit:4;stroke-dasharray:none;stroke-opacity:1"
         d="m 253.98271,518.21625 a 3.2073252,3.2073252 0 0 0 -3.20732,3.20732 3.2073252,3.2073252 0 0 0 3.20732,3.20731 3.2073252,3.2073252 0 0 0 3.20731,-3.20731 3.2073252,3.2073252 0 0 0 -3.20731,-3.20732 z"
         id="path4545" />
      <path
         style="fill:#000000;fill-opacity:1;stroke:none;stroke-width:1.42547;stroke-miterlimit:4;stroke-dasharray:none;stroke-opacity:1"
         d="M 447.17114,515.79263 A 3.2073252,3.2073252 0 0 0 443.96382,519 a 3.2073252,3.2073252 0 0 0 1.90713,2.933 c 0.21687,-1.14112 0.64519,-2.27868 1.55356,-3.4105 0.53625,-0.66875 1.12156,-1.37943 1.69275,-2.07143 a 3.2073252,3.2073252 0 0 0 -1.94612,-0.65844 z"
         id="path4543" />
      <path
         style="fill:#000000;fill-opacity:1;stroke:none;stroke-width:1.42547;stroke-miterlimit:4;stroke-dasharray:none;stroke-opacity:1"
         d="M 433.60682,515.79263 A 3.2073252,3.2073252 0 0 0 430.39951,519 a 3.2073252,3.2073252 0 0 0 3.20731,3.20732 3.2073252,3.2073252 0 0 0 3.20732,-3.20732 3.2073252,3.2073252 0 0 0 -3.20732,-3.20737 z"
         id="path4541" />
      <path
         style="fill:#000000;fill-opacity:1;stroke:none;stroke-width:1.42547;stroke-miterlimit:4;stroke-dasharray:none;stroke-opacity:1"
         d="M 375.75383,515.79263 A 3.2073252,3.2073252 0 0 0 372.54651,519 a 3.2073252,3.2073252 0 0 0 3.20732,3.20732 3.2073252,3.2073252 0 0 0 3.20737,-3.20732 3.2073252,3.2073252 0 0 0 -3.20737,-3.20737 z"
         id="path4539" />
      <path
         style="fill:#000000;fill-opacity:1;stroke:none;stroke-width:1.42547;stroke-miterlimit:4;stroke-dasharray:none;stroke-opacity:1"
         d="M 362.19095,515.79263 A 3.2073252,3.2073252 0 0 0 358.98358,519 a 3.2073252,3.2073252 0 0 0 3.20737,3.20732 3.2073252,3.2073252 0 0 0 3.20731,-3.20732 3.2073252,3.2073252 0 0 0 -3.20731,-3.20737 z"
         id="path4537" />
      <path
         style="fill:#000000;fill-opacity:1;stroke:none;stroke-width:1.42547;stroke-miterlimit:4;stroke-dasharray:none;stroke-opacity:1"
         d="M 304.33795,515.79263 A 3.2073252,3.2073252 0 0 0 301.13064,519 a 3.2073252,3.2073252 0 0 0 3.20731,3.20732 3.2073252,3.2073252 0 0 0 3.20732,-3.20732 3.2073252,3.2073252 0 0 0 -3.20732,-3.20737 z"
         id="path4535" />
      <path
         style="fill:#000000;fill-opacity:1;stroke:none;stroke-width:1.42547;stroke-miterlimit:4;stroke-dasharray:none;stroke-opacity:1"
         d="M 290.77508,515.79263 A 3.2073252,3.2073252 0 0 0 287.56777,519 a 3.2073252,3.2073252 0 0 0 3.20731,3.20732 3.2073252,3.2073252 0 0 0 3.20731,-3.20732 3.2073252,3.2073252 0 0 0 -3.20731,-3.20737 z"
         id="path4533" />
      <path
         style="fill:#000000;fill-opacity:1;stroke:none;stroke-width:1.42547;stroke-miterlimit:4;stroke-dasharray:none;stroke-opacity:1"
         d="M 232.92208,515.79263 A 3.2073252,3.2073252 0 0 0 229.71477,519 a 3.2073252,3.2073252 0 0 0 0.30125,1.35444 c 2.32044,-0.18062 4.2145,-0.15937 5.80906,0.006 a 3.2073252,3.2073252 0 0 0 0.305,-1.36281 3.2073252,3.2073252 0 0 0 -3.20731,-3.20731 z"
         id="path4531" />
      <path
         style="fill:#000000;fill-opacity:1;stroke:none;stroke-width:1.42547;stroke-miterlimit:4;stroke-dasharray:none;stroke-opacity:1"
         d="M 219.35777,515.79263 A 3.2073252,3.2073252 0 0 0 216.15046,519 a 3.2073252,3.2073252 0 0 0 0.51625,1.74563 c 1.18768,0.2275 2.83837,0.35437 5.12,0.3475 a 3.2073252,3.2073252 0 0 0 0.77818,-2.09369 3.2073252,3.2073252 0 0 0 -3.20731,-3.20731 z"
         id="path4529" />
      <path
         style="fill:#000000;fill-opacity:1;stroke:none;stroke-width:1.42547;stroke-miterlimit:4;stroke-dasharray:none;stroke-opacity:1"
         d="m 415.08258,513.841 a 3.2073252,3.2073252 0 0 0 -3.128,3.20732 3.2073252,3.2073252 0 0 0 3.20737,3.20731 3.2073252,3.2073252 0 0 0 3.20731,-3.20731 3.2073252,3.2073252 0 0 0 -3.20731,-3.20732 3.2073252,3.2073252 0 0 0 -0.0794,0 z"
         id="path4527" />
      <path
         style="fill:#000000;fill-opacity:1;stroke:none;stroke-width:1.42547;stroke-miterlimit:4;stroke-dasharray:none;stroke-opacity:1"
         d="m 272.24939,513.841 a 3.2073252,3.2073252 0 0 0 -3.12794,3.20732 3.2073252,3.2073252 0 0 0 3.20732,3.20731 3.2073252,3.2073252 0 0 0 3.20731,-3.20731 3.2073252,3.2073252 0 0 0 -3.20731,-3.20732 3.2073252,3.2073252 0 0 0 -0.0794,0 z"
         id="path4523" />
      <path
         style="fill:#000000;fill-opacity:1;stroke:none;stroke-width:1.42547;stroke-miterlimit:4;stroke-dasharray:none;stroke-opacity:1"
         d="m 405.39795,513.234 a 3.2073252,3.2073252 0 0 0 -3.20737,3.20732 3.2073252,3.2073252 0 0 0 3.20737,3.20731 3.2073252,3.2073252 0 0 0 3.20731,-3.20731 3.2073252,3.2073252 0 0 0 -3.20731,-3.20732 z"
         id="path4521" />
      <path
         style="fill:#000000;fill-opacity:1;stroke:none;stroke-width:1.42547;stroke-miterlimit:4;stroke-dasharray:none;stroke-opacity:1"
         d="m 262.56477,513.234 a 3.2073252,3.2073252 0 0 0 -3.20732,3.20732 3.2073252,3.2073252 0 0 0 3.20732,3.20731 3.2073252,3.2073252 0 0 0 3.20731,-3.20731 3.2073252,3.2073252 0 0 0 -3.20731,-3.20732 z"
         id="path4517" />
      <path
         style="fill:#000000;fill-opacity:1;stroke:none;stroke-width:1.42547;stroke-miterlimit:4;stroke-dasharray:none;stroke-opacity:1"
         d="m 191.14752,513.234 a 3.2073252,3.2073252 0 0 0 -1.1735,0.2225 c 0.8105,0.1275 1.78437,0.22688 2.92056,0.295 a 3.2073252,3.2073252 0 0 0 -1.74706,-0.51812 z"
         id="path4515" />
      <path
         style="fill:#000000;fill-opacity:1;stroke:none;stroke-width:1.42547;stroke-miterlimit:4;stroke-dasharray:none;stroke-opacity:1"
         d="m 391.98401,508.48707 a 3.2073252,3.2073252 0 0 0 -3.20731,3.20731 3.2073252,3.2073252 0 0 0 3.20731,3.20731 3.2073252,3.2073252 0 0 0 3.20732,-3.20731 3.2073252,3.2073252 0 0 0 -3.20732,-3.20731 z"
         id="path4513" />
      <path
         style="fill:#000000;fill-opacity:1;stroke:none;stroke-width:1.42547;stroke-miterlimit:4;stroke-dasharray:none;stroke-opacity:1"
         d="m 320.5667,508.48707 a 3.2073252,3.2073252 0 0 0 -3.20731,3.20731 3.2073252,3.2073252 0 0 0 3.20731,3.20731 3.2073252,3.2073252 0 0 0 3.20738,-3.20731 3.2073252,3.2073252 0 0 0 -3.20738,-3.20731 z"
         id="path4511" />
      <path
         style="fill:#000000;fill-opacity:1;stroke:none;stroke-width:1.42547;stroke-miterlimit:4;stroke-dasharray:none;stroke-opacity:1"
         d="m 249.15083,508.48707 a 3.2073252,3.2073252 0 0 0 -3.20731,3.20731 3.2073252,3.2073252 0 0 0 3.20731,3.20731 3.2073252,3.2073252 0 0 0 3.20731,-3.20731 3.2073252,3.2073252 0 0 0 -3.20731,-3.20731 z"
         id="path4509" />
      <path
         style="fill:#000000;fill-opacity:1;stroke:none;stroke-width:1.42547;stroke-miterlimit:4;stroke-dasharray:none;stroke-opacity:1"
         d="m 440.44326,506.94738 a 3.2073252,3.2073252 0 0 0 -3.20731,3.20737 3.2073252,3.2073252 0 0 0 3.20731,3.20732 3.2073252,3.2073252 0 0 0 3.20731,-3.20732 3.2073252,3.2073252 0 0 0 -3.20731,-3.20737 z"
         id="path4507" />
      <path
         style="fill:#000000;fill-opacity:1;stroke:none;stroke-width:1.42547;stroke-miterlimit:4;stroke-dasharray:none;stroke-opacity:1"
         d="m 369.02601,506.94738 a 3.2073252,3.2073252 0 0 0 -3.20731,3.20737 3.2073252,3.2073252 0 0 0 3.20731,3.20732 3.2073252,3.2073252 0 0 0 3.20732,-3.20732 3.2073252,3.2073252 0 0 0 -3.20732,-3.20737 z"
         id="path4505" />
      <path
         style="fill:#000000;fill-opacity:1;stroke:none;stroke-width:1.42547;stroke-miterlimit:4;stroke-dasharray:none;stroke-opacity:1"
         d="m 297.61008,506.94738 a 3.2073252,3.2073252 0 0 0 -3.20731,3.20737 3.2073252,3.2073252 0 0 0 3.20731,3.20732 3.2073252,3.2073252 0 0 0 3.20731,-3.20732 3.2073252,3.2073252 0 0 0 -3.20731,-3.20737 z"
         id="path4503" />
      <path
         style="fill:#000000;fill-opacity:1;stroke:none;stroke-width:1.42547;stroke-miterlimit:4;stroke-dasharray:none;stroke-opacity:1"
         d="m 226.19283,506.94738 a 3.2073252,3.2073252 0 0 0 -3.20731,3.20737 3.2073252,3.2073252 0 0 0 3.20731,3.20732 3.2073252,3.2073252 0 0 0 3.20738,-3.20732 3.2073252,3.2073252 0 0 0 -3.20738,-3.20737 z"
         id="path4501" />
      <path
         style="fill:#000000;fill-opacity:1;stroke:none;stroke-width:1.42547;stroke-miterlimit:4;stroke-dasharray:none;stroke-opacity:1"
         d="m 427.00707,506.34182 a 3.2073252,3.2073252 0 0 0 -3.20731,3.20737 3.2073252,3.2073252 0 0 0 3.20731,3.20731 3.2073252,3.2073252 0 0 0 3.20732,-3.20731 3.2073252,3.2073252 0 0 0 -3.20732,-3.20737 z"
         id="path4499" />
      <path
         style="fill:#000000;fill-opacity:1;stroke:none;stroke-width:1.42547;stroke-miterlimit:4;stroke-dasharray:none;stroke-opacity:1"
         d="m 355.59114,506.34182 a 3.2073252,3.2073252 0 0 0 -3.20738,3.20737 3.2073252,3.2073252 0 0 0 3.20738,3.20731 3.2073252,3.2073252 0 0 0 3.20731,-3.20731 3.2073252,3.2073252 0 0 0 -3.20731,-3.20737 z"
         id="path4497" />
      <path
         style="fill:#000000;fill-opacity:1;stroke:none;stroke-width:1.42547;stroke-miterlimit:4;stroke-dasharray:none;stroke-opacity:1"
         d="m 284.17527,506.34182 a 3.2073252,3.2073252 0 0 0 -3.20738,3.20737 3.2073252,3.2073252 0 0 0 3.20738,3.20731 3.2073252,3.2073252 0 0 0 3.20731,-3.20731 3.2073252,3.2073252 0 0 0 -3.20731,-3.20737 z"
         id="path4495" />
      <path
         style="fill:#000000;fill-opacity:1;stroke:none;stroke-width:1.42547;stroke-miterlimit:4;stroke-dasharray:none;stroke-opacity:1"
         d="m 212.75802,506.34182 a 3.2073252,3.2073252 0 0 0 -3.20731,3.20737 3.2073252,3.2073252 0 0 0 3.20731,3.20731 3.2073252,3.2073252 0 0 0 3.20731,-3.20731 3.2073252,3.2073252 0 0 0 -3.20731,-3.20737 z"
         id="path4493" />
      <path
         style="fill:#000000;fill-opacity:1;stroke:none;stroke-width:1.42547;stroke-miterlimit:4;stroke-dasharray:none;stroke-opacity:1"
         d="m 451.66057,504.10482 a 3.2073252,3.2073252 0 0 0 -3.128,3.20731 3.2073252,3.2073252 0 0 0 3.20732,3.20737 3.2073252,3.2073252 0 0 0 2.66587,-1.4255 c 0.15125,-0.29687 0.28688,-0.5925 0.41313,-0.88675 a 3.2073252,3.2073252 0 0 0 0.1275,-0.89512 3.2073252,3.2073252 0 0 0 -3.20732,-3.20731 3.2073252,3.2073252 0 0 0 -0.0794,0 z"
         id="path4491" />
      <path
         style="fill:#000000;fill-opacity:1;stroke:none;stroke-width:1.42547;stroke-miterlimit:4;stroke-dasharray:none;stroke-opacity:1"
         d="m 380.24326,504.10482 a 3.2073252,3.2073252 0 0 0 -3.12793,3.20731 3.2073252,3.2073252 0 0 0 3.20731,3.20737 3.2073252,3.2073252 0 0 0 3.20731,-3.20737 3.2073252,3.2073252 0 0 0 -3.20731,-3.20731 3.2073252,3.2073252 0 0 0 -0.0794,0 z"
         id="path4489" />
      <path
         style="fill:#000000;fill-opacity:1;stroke:none;stroke-width:1.42547;stroke-miterlimit:4;stroke-dasharray:none;stroke-opacity:1"
         d="m 308.82739,504.10482 a 3.2073252,3.2073252 0 0 0 -3.128,3.20731 3.2073252,3.2073252 0 0 0 3.20738,3.20737 3.2073252,3.2073252 0 0 0 3.20731,-3.20737 3.2073252,3.2073252 0 0 0 -3.20731,-3.20731 3.2073252,3.2073252 0 0 0 -0.0794,0 z"
         id="path4487" />
      <path
         style="fill:#000000;fill-opacity:1;stroke:none;stroke-width:1.42547;stroke-miterlimit:4;stroke-dasharray:none;stroke-opacity:1"
         d="m 237.41014,504.10482 a 3.2073252,3.2073252 0 0 0 -3.12662,3.20731 3.2073252,3.2073252 0 0 0 3.20737,3.20737 3.2073252,3.2073252 0 0 0 3.20732,-3.20737 3.2073252,3.2073252 0 0 0 -3.20732,-3.20731 3.2073252,3.2073252 0 0 0 -0.0806,0 z"
         id="path4485" />
      <path
         style="fill:#000000;fill-opacity:1;stroke:none;stroke-width:1.42547;stroke-miterlimit:4;stroke-dasharray:none;stroke-opacity:1"
         d="m 202.30358,503.66488 c -1.76775,0.14562 -3.31137,0.355 -4.53119,0.64875 a 3.2073252,3.2073252 0 0 0 -0.62375,1.90019 3.2073252,3.2073252 0 0 0 3.20732,3.20731 3.2073252,3.2073252 0 0 0 3.20731,-3.20731 3.2073252,3.2073252 0 0 0 -1.25981,-2.54894 z"
         id="path4483" />
      <path
         style="fill:#000000;fill-opacity:1;stroke:none;stroke-width:1.42547;stroke-miterlimit:4;stroke-dasharray:none;stroke-opacity:1"
         d="m 223.30708,503.21944 c -1.892,0.05 -3.98581,0.0687 -6.17937,0.0762 a 3.2073252,3.2073252 0 0 0 3.07918,2.31219 3.2073252,3.2073252 0 0 0 3.10019,-2.38881 z"
         id="path4481" />
      <path
         style="fill:#000000;fill-opacity:1;stroke:none;stroke-width:1.42547;stroke-miterlimit:4;stroke-dasharray:none;stroke-opacity:1"
         d="m 414.60645,503.0065 a 3.2073252,3.2073252 0 0 0 -3.20731,3.20732 3.2073252,3.2073252 0 0 0 3.20731,3.20731 3.2073252,3.2073252 0 0 0 3.20738,-3.20731 3.2073252,3.2073252 0 0 0 -3.20738,-3.20732 z"
         id="path4479" />
      <path
         style="fill:#000000;fill-opacity:1;stroke:none;stroke-width:1.42547;stroke-miterlimit:4;stroke-dasharray:none;stroke-opacity:1"
         d="m 346.37483,502.15582 a 3.2073252,3.2073252 0 0 0 -3.20732,3.20731 3.2073252,3.2073252 0 0 0 3.20732,3.20731 3.2073252,3.2073252 0 0 0 3.20731,-3.20731 3.2073252,3.2073252 0 0 0 -3.20731,-3.20731 z"
         id="path4477" />
      <path
         style="fill:#000000;fill-opacity:1;stroke:none;stroke-width:1.42547;stroke-miterlimit:4;stroke-dasharray:none;stroke-opacity:1"
         d="m 271.77333,503.0065 a 3.2073252,3.2073252 0 0 0 -3.20738,3.20732 3.2073252,3.2073252 0 0 0 3.20738,3.20731 3.2073252,3.2073252 0 0 0 3.20731,-3.20731 3.2073252,3.2073252 0 0 0 -3.20731,-3.20732 z"
         id="path4475" />
      <path
         style="fill:#000000;fill-opacity:1;stroke:none;stroke-width:1.42547;stroke-miterlimit:4;stroke-dasharray:none;stroke-opacity:1"
         d="m 401.96926,502.40094 a 3.2073252,3.2073252 0 0 0 -3.20731,3.20731 3.2073252,3.2073252 0 0 0 3.20731,3.20732 3.2073252,3.2073252 0 0 0 3.20732,-3.20732 3.2073252,3.2073252 0 0 0 -3.20732,-3.20731 z"
         id="path4473" />
      <path
         style="fill:#000000;fill-opacity:1;stroke:none;stroke-width:1.42547;stroke-miterlimit:4;stroke-dasharray:none;stroke-opacity:1"
         d="m 330.55208,502.40094 a 3.2073252,3.2073252 0 0 0 -3.20738,3.20731 3.2073252,3.2073252 0 0 0 3.20738,3.20732 3.2073252,3.2073252 0 0 0 3.20731,-3.20732 3.2073252,3.2073252 0 0 0 -3.20731,-3.20731 z"
         id="path4471" />
      <path
         style="fill:#000000;fill-opacity:1;stroke:none;stroke-width:1.42547;stroke-miterlimit:4;stroke-dasharray:none;stroke-opacity:1"
         d="m 259.13608,502.40094 a 3.2073252,3.2073252 0 0 0 -3.20731,3.20731 3.2073252,3.2073252 0 0 0 3.20731,3.20732 3.2073252,3.2073252 0 0 0 3.20737,-3.20732 3.2073252,3.2073252 0 0 0 -3.20737,-3.20731 z"
         id="path4469" />
      <path
         style="fill:#000000;fill-opacity:1;stroke:none;stroke-width:1.42547;stroke-miterlimit:4;stroke-dasharray:none;stroke-opacity:1"
         d="m 332.91158,500.12632 a 3.2073252,3.2073252 0 0 0 2.01712,0.71412 3.2073252,3.2073252 0 0 0 1.79019,-0.54875 c -1.26987,-0.0563 -2.53569,-0.1125 -3.80731,-0.16562 z"
         id="path4467" />
      <path
         style="fill:#000000;fill-opacity:1;stroke:none;stroke-width:1.42547;stroke-miterlimit:4;stroke-dasharray:none;stroke-opacity:1"
         d="m 317.35658,499.692 a 3.2073252,3.2073252 0 0 0 -0.10438,0.806 3.2073252,3.2073252 0 0 0 10e-4,0.0794 3.2073252,3.2073252 0 0 0 -10e-4,0.0625 3.2073252,3.2073252 0 0 0 3.20732,3.20737 3.2073252,3.2073252 0 0 0 3.20731,-3.20737 3.2073252,3.2073252 0 0 0 0,-0.0919 3.2073252,3.2073252 0 0 0 0,-0.05 3.2073252,3.2073252 0 0 0 -0.0738,-0.68212 c -1.893,-0.0375 -3.7665,-0.0625 -5.60588,-0.0562 -0.20875,-0.025 -0.42125,-0.0437 -0.63062,-0.0656 z"
         id="path4465" />
      <path
         style="fill:#000000;fill-opacity:1;stroke:none;stroke-width:1.42547;stroke-miterlimit:4;stroke-dasharray:none;stroke-opacity:1"
         d="m 363.59414,499.10032 c -0.69963,0.70493 -1.39969,1.40968 -2.09925,2.11456 -0.4775,-10e-4 -0.9925,-0.0188 -1.47975,-0.025 a 3.2073252,3.2073252 0 0 0 -0.18375,1.065 3.2073252,3.2073252 0 0 0 10e-4,0.0806 3.2073252,3.2073252 0 0 0 -10e-4,0.0625 3.2073252,3.2073252 0 0 0 3.20731,3.20732 3.2073252,3.2073252 0 0 0 3.20738,-3.20732 3.2073252,3.2073252 0 0 0 0,-0.0919 3.2073252,3.2073252 0 0 0 0,-0.05 3.2073252,3.2073252 0 0 0 -2.65194,-3.15719 z"
         id="path4463" />
      <path
         style="fill:#000000;fill-opacity:1;stroke:none;stroke-width:1.42547;stroke-miterlimit:4;stroke-dasharray:none;stroke-opacity:1"
         d="m 434.45595,499.05025 a 3.2073252,3.2073252 0 0 0 -3.20731,3.20732 3.2073252,3.2073252 0 0 0 10e-4,0.0987 3.2073252,3.2073252 0 0 0 -10e-4,0.0438 3.2073252,3.2073252 0 0 0 3.20731,3.20737 3.2073252,3.2073252 0 0 0 3.20731,-3.20737 3.2073252,3.2073252 0 0 0 -10e-4,-0.0794 3.2073252,3.2073252 0 0 0 10e-4,-0.0644 3.2073252,3.2073252 0 0 0 -3.20731,-3.20732 z"
         id="path4461" />
      <path
         style="fill:#000000;fill-opacity:1;stroke:none;stroke-width:1.42547;stroke-miterlimit:4;stroke-dasharray:none;stroke-opacity:1"
         d="m 291.62283,499.05025 a 3.2073252,3.2073252 0 0 0 -3.20738,3.20732 3.2073252,3.2073252 0 0 0 10e-4,0.0806 3.2073252,3.2073252 0 0 0 -10e-4,0.0625 3.2073252,3.2073252 0 0 0 3.20738,3.20731 3.2073252,3.2073252 0 0 0 3.20731,-3.20731 3.2073252,3.2073252 0 0 0 -10e-4,-0.0794 3.2073252,3.2073252 0 0 0 10e-4,-0.0644 3.2073252,3.2073252 0 0 0 -3.20731,-3.20731 z"
         id="path4459" />
      <path
         style="fill:#000000;fill-opacity:1;stroke:none;stroke-width:1.42547;stroke-miterlimit:4;stroke-dasharray:none;stroke-opacity:1"
         d="m 307.93645,498.81082 a 3.2073252,3.2073252 0 0 0 1.91132,0.632 3.2073252,3.2073252 0 0 0 0.0794,-10e-4 3.2073252,3.2073252 0 0 0 0.0625,10e-4 3.2073252,3.2073252 0 0 0 1.431,-0.33688 c -1.15056,-0.10437 -2.32094,-0.19812 -3.48431,-0.295 z"
         id="path4457" />
      <path
         style="fill:#000000;fill-opacity:1;stroke:none;stroke-width:1.42547;stroke-miterlimit:4;stroke-dasharray:none;stroke-opacity:1"
         d="m 298.14327,498.07438 a 3.2073252,3.2073252 0 0 0 1.18468,0.22812 3.2073252,3.2073252 0 0 0 0.76982,-0.0944 c -0.64938,-0.05 -1.30269,-0.0894 -1.9545,-0.13375 z"
         id="path4455" />
      <path
         style="fill:#000000;fill-opacity:1;stroke:none;stroke-width:1.42547;stroke-miterlimit:4;stroke-dasharray:none;stroke-opacity:1"
         d="m 391.87683,497.29063 a 3.2073252,3.2073252 0 0 0 -3.20738,3.20737 3.2073252,3.2073252 0 0 0 0.001,0.0794 3.2073252,3.2073252 0 0 0 -0.001,0.0625 3.2073252,3.2073252 0 0 0 3.20738,3.20737 3.2073252,3.2073252 0 0 0 3.20731,-3.20737 3.2073252,3.2073252 0 0 0 -10e-4,-0.0794 3.2073252,3.2073252 0 0 0 10e-4,-0.0625 3.2073252,3.2073252 0 0 0 -3.20731,-3.20731 z"
         id="path4453" />
      <path
         style="fill:#000000;fill-opacity:1;stroke:none;stroke-width:1.42547;stroke-miterlimit:4;stroke-dasharray:none;stroke-opacity:1"
         d="m 249.04364,497.29063 a 3.2073252,3.2073252 0 0 0 -3.20731,3.20737 3.2073252,3.2073252 0 0 0 0.001,0.0794 3.2073252,3.2073252 0 0 0 -0.001,0.0625 3.2073252,3.2073252 0 0 0 3.20731,3.20737 3.2073252,3.2073252 0 0 0 3.20732,-3.20737 3.2073252,3.2073252 0 0 0 -0.001,-0.0794 3.2073252,3.2073252 0 0 0 0.001,-0.0625 3.2073252,3.2073252 0 0 0 -3.20732,-3.20731 z"
         id="path4451" />
      <path
         style="fill:#000000;fill-opacity:1;stroke:none;stroke-width:1.42547;stroke-miterlimit:4;stroke-dasharray:none;stroke-opacity:1"
         d="m 278.53183,496.87032 a 3.2073252,3.2073252 0 0 0 -0.0563,0.6125 3.2073252,3.2073252 0 0 0 0,0.0919 3.2073252,3.2073252 0 0 0 0,0.05 3.2073252,3.2073252 0 0 0 3.20737,3.20731 3.2073252,3.2073252 0 0 0 3.20732,-3.20731 3.2073252,3.2073252 0 0 0 -10e-4,-0.0794 3.2073252,3.2073252 0 0 0 10e-4,-0.0625 3.2073252,3.2073252 0 0 0 -0.006,-0.23938 c -2.11607,-0.12312 -4.22838,-0.25062 -6.34644,-0.37312 z"
         id="path4449" />
      <path
         style="fill:#000000;fill-opacity:1;stroke:none;stroke-width:1.42547;stroke-miterlimit:4;stroke-dasharray:none;stroke-opacity:1"
         d="m 230.91477,496.21738 c -1.32494,0.59125 -2.19088,1.28762 -2.49044,2.04356 a 3.2073252,3.2073252 0 0 0 2.49044,-2.04356 z"
         id="path4447" />
      <path
         style="fill:#000000;fill-opacity:1;stroke:none;stroke-width:1.42547;stroke-miterlimit:4;stroke-dasharray:none;stroke-opacity:1"
         d="m 260.8122,495.76082 a 3.2073252,3.2073252 0 0 0 -0.50687,1.72893 3.2073252,3.2073252 0 0 0 0,0.0919 3.2073252,3.2073252 0 0 0 0,0.05 3.2073252,3.2073252 0 0 0 3.20737,3.20731 3.2073252,3.2073252 0 0 0 3.20732,-3.20731 3.2073252,3.2073252 0 0 0 -10e-4,-0.0806 3.2073252,3.2073252 0 0 0 10e-4,-0.0625 3.2073252,3.2073252 0 0 0 -0.3025,-1.3545 c -1.87488,-0.12125 -3.7485,-0.24187 -5.60582,-0.37437 z"
         id="path4445" />
      <path
         style="fill:#000000;fill-opacity:1;stroke:none;stroke-width:1.42547;stroke-miterlimit:4;stroke-dasharray:none;stroke-opacity:1"
         d="m 421.82714,495.73013 a 3.2073252,3.2073252 0 0 0 -0.52188,1.75262 3.2073252,3.2073252 0 0 0 0.001,0.0794 3.2073252,3.2073252 0 0 0 -0.001,0.0625 3.2073252,3.2073252 0 0 0 3.20732,3.20731 3.2073252,3.2073252 0 0 0 3.20731,-3.20731 3.2073252,3.2073252 0 0 0 0,-0.0919 3.2073252,3.2073252 0 0 0 0,-0.05 3.2073252,3.2073252 0 0 0 -0.025,-0.3775 c -1.70525,-0.43437 -3.43988,-0.8585 -5.29269,-1.23618 h -0.003 c -0.19125,-0.05 -0.38375,-0.0925 -0.575,-0.13938 z"
         id="path4443" />
      <path
         style="fill:#000000;fill-opacity:1;stroke:none;stroke-width:1.42547;stroke-miterlimit:4;stroke-dasharray:none;stroke-opacity:1"
         d="m 241.14364,494.31719 c -2.06581,0.0844 -3.95762,0.29625 -5.6365,0.60125 a 3.2073252,3.2073252 0 0 0 -0.28437,1.31694 3.2073252,3.2073252 0 0 0 3.20731,3.20731 3.2073252,3.2073252 0 0 0 0.0794,-0.002 3.2073252,3.2073252 0 0 1 0.001,0 3.2073252,3.2073252 0 0 0 0.0625,0.002 3.2073252,3.2073252 0 0 0 3.20732,-3.20731 3.2073252,3.2073252 0 0 0 -0.63757,-1.91831 z"
         id="path4441" />
      <path
         style="fill:#000000;fill-opacity:1;stroke:none;stroke-width:1.42547;stroke-miterlimit:4;stroke-dasharray:none;stroke-opacity:1"
         d="m 406.34458,494.28244 a 3.2073252,3.2073252 0 0 0 -3.20732,3.20731 3.2073252,3.2073252 0 0 0 10e-4,0.0794 3.2073252,3.2073252 0 0 0 -10e-4,0.0644 3.2073252,3.2073252 0 0 0 3.20732,3.20732 3.2073252,3.2073252 0 0 0 3.20731,-3.20732 3.2073252,3.2073252 0 0 0 0,-0.0931 3.2073252,3.2073252 0 0 0 0,-0.05 3.2073252,3.2073252 0 0 0 -3.20731,-3.20731 z"
         id="path4439" />
      <path
         style="fill:#000000;fill-opacity:1;stroke:none;stroke-width:1.42547;stroke-miterlimit:4;stroke-dasharray:none;stroke-opacity:1"
         d="m 381.26364,493.02813 a 3.2073252,3.2073252 0 0 0 -3.20731,3.20737 3.2073252,3.2073252 0 0 0 3.20731,3.20732 3.2073252,3.2073252 0 0 0 0.0794,-10e-4 3.2073252,3.2073252 0 0 0 0.0638,10e-4 3.2073252,3.2073252 0 0 0 3.20732,-3.20732 3.2073252,3.2073252 0 0 0 -3.20732,-3.20737 3.2073252,3.2073252 0 0 0 -0.0806,0.001 3.2073252,3.2073252 0 0 0 -0.0625,-0.001 z"
         id="path4437" />
      <path
         style="fill:#000000;fill-opacity:1;stroke:none;stroke-width:1.42547;stroke-miterlimit:4;stroke-dasharray:none;stroke-opacity:1"
         d="m 370.7522,491.888 c -1.07194,1.07988 -2.14375,2.15957 -3.21569,3.23938 a 3.2073252,3.2073252 0 0 0 3.20732,3.17531 3.2073252,3.2073252 0 0 0 3.20731,-3.20737 3.2073252,3.2073252 0 0 0 -3.19894,-3.20732 z"
         id="path3379" />
      <g
         id="g1096">
        <path
           inkscape:connector-curvature="0"
           style="fill:none;fill-opacity:1;stroke:#000000;stroke-width:1.18789;stroke-miterlimit:4;stroke-dasharray:none;stroke-opacity:1"
           d="m 352.49584,430.06573 c -0.90831,-0.18625 -1.70543,0.0312 -1.78581,0.48562 l -14.888,84.54481 c -2.39369,-0.14812 -3.08437,0.76669 -3.29806,1.98019 l -1.56106,8.86481 c -0.26125,1.48269 0.87731,2.95338 4.01631,3.59656 3.13906,0.64319 4.811,-0.25187 5.07206,-1.73431 l 1.56106,-8.86481 c 0.21375,-1.2135 -0.23562,-2.362 -2.51318,-3.17094 l 14.88806,-84.54481 c 0.0806,-0.45625 -0.58313,-0.97068 -1.49138,-1.15681 z"
           id="rect16246-9-4"
           sodipodi:nodetypes="sscssssscss" />
        <path
           inkscape:connector-curvature="0"
           id="path17046-5-8"
           d="m 344.41584,469.50398 -8.11031,46.05625 c -1.91894,-0.0563 -3.046,0.45062 -3.25575,1.64181 l -1.63494,8.88187 c -0.25625,1.45575 1.11588,2.653 3.61819,3.16575 2.50238,0.5125 4.24131,-0.1525 4.49763,-1.60844 l 1.52793,-8.79818 c 0.21,-1.19138 -0.75581,-2.15688 -2.5605,-2.86269 l 8.06788,-46.00062 z"
           style="fill:#ff0000;fill-opacity:1;stroke:none;stroke-width:0.6987"
           sodipodi:nodetypes="ccccsccccc" />
      </g>
    </g>
  </g>
</svg>
